<?xml version="1.0" encoding="UTF-8" standalone="no"?>
<svg
   xmlns:dc="http://purl.org/dc/elements/1.1/"
   xmlns:cc="http://creativecommons.org/ns#"
   xmlns:rdf="http://www.w3.org/1999/02/22-rdf-syntax-ns#"
   xmlns:svg="http://www.w3.org/2000/svg"
   xmlns="http://www.w3.org/2000/svg"
   version="1.1"
   id="svg2"
   width="6048"
   height="8506"
   viewBox="0 0 6048 8506">
  <metadata
     id="metadata8">
    <rdf:RDF>
      <cc:Work
         rdf:about="">
        <dc:format>image/svg+xml</dc:format>
        <dc:type
           rdf:resource="http://purl.org/dc/dcmitype/StillImage" />
        <dc:title></dc:title>
      </cc:Work>
    </rdf:RDF>
  </metadata>
  <defs
     id="defs6" />
  <g
     id="g10">
    <path
       style="fill:#fff;stroke:none"
       d="m 1796.7754,1127.5853 c -59.16,-44.588 -115.8,-91.046 -178,-131.65602 -124.74,-81.43596 -258.11,-149.67796 -391,-216.59196 -101.164,-50.94 -214.493,-107.469 -330.99999,-76.868 -83.501,21.932 -149.253,83.594 -199.873,151.116 -41.144,54.881 -82.16,116.73 -109.254,179.99998 -25.273,59.015 -41.07,125.51 -59.593,187 -102.211,339.3 -229.353,672.92 -311.1643,1018 -44.9367,189.55 -85.3638,389.19 -70.9606,584.83 6.3693,86.51 21.9421,171.48 51.7917,253.17 8.2444,22.56 14.3719,49.12 26.2777,70 10.7134,18.79 35.9925,28.61 49.0155,46 24.379,32.56 46.684,66.8 70.184,100 15.954,22.54 34.81,44.86 48.227,69 11.585,20.84 18.051,45.86 26.9,68 124.512,311.52 243.891,626.55 343.475,947 40.98,131.87 79.74,264.44 114.858,398 14.484,55.09 32.736,110.88 42.652,167 4.693,26.56 3.711,55.1 5.553,82 3.494,51.01 7.328,101.99 10.822,153 8.559,124.99 16.611,250.01 25.178,375 l 8,118 c 1.061,15.47 6.762,36.87 3.554,51.99 -1.59,7.49 -15.917,15.03 -21.643,19.61 -18.536,14.83 -35.423,31.42 -51.985,48.4 -45.63,46.78 -85.547,106.3 -112.154,166 -51.194,114.87 -79.323,236.43 -84.822,362 -3.134,71.58 3.985,145.64 8.872,217 6.646,97.06 8.603,194.6 35.516,289 23.315,81.77 56.667,160.47 102.882,232 17.432,26.98 36.671,56.35 59.98,78.67 9.68,9.28 23.519,15.37 34.711,22.67 27.774,18.13 56.1,35.42 83.99999,53.35 47.422,30.49 93.209,69.01 151,73.98 11.87,1.02 26.31,-3.87 38,-6.06 23.27,-4.35 46.66,-8.28 70,-12.2 21.02,-3.52 41.98,-7.47 63,-11 10.46,-1.75 23.42,-2.23 33,-6.92 61.7,-30.24 102.12,-91.04 147.17,-141.49 26.53,-29.71 60.4,-59.48 81.87,-93 41.8,-65.25 48.27,-152.83 65.84,-227 7.89,-33.26 15.13,-66.68 22.77,-100 3.91,-17.04 10.68,-35.53 11.74,-53 1.84,-30.23 -2.03,-61.78 -3.35,-92 -2.04,-46.66 -2.96,-93.36 -5,-140 -7.09,-161.79 -25.76,-319.7 -104.35,-465 -34.44,-63.67 -78.73,-122.6 -131.69,-171.91 -17.35,-16.16 -36.34,-31.17 -56,-44.42 -6.24,-4.21 -21.34,-10.34 -23.72,-17.76 -4.46,-13.93 -2.11,-33.35 -2.28,-47.91 -0.31,-26.11 -1.3,-52.93 -3.09,-79 -5.26,-76.74 -6.81,-154.03 -4.92,-231 0.67,-27.4 -3.6,-56.89 0.31,-84 4.67,-32.41 25.21,-63.34 27.61,-96 3.24,-44.16 -3.94,-90.81 -5.87,-135 -4.76,-108.78 -14.55,-216.52 -24.87,-325 -6.82,-71.68 5.51,-145.3 -1.27,-217 -1.47,-15.49 -12.14,-33.55 -17.9,-48 -14.47,-36.3 -32.43,-73.46 -43.22,-111 -15.3,-53.23 -16.54,-111.7 -27.78,-166 -10.78,-52.06 -22.02,-104.07 -33.42,-156 -5.88,-26.74 -14.69,-54.77 -17.41,-82 -2.42,-24.18 -0.17,-49.7 -0.17,-74 22.37,20.5 39.28,54.09 56.72,79 33.71,48.16 67.9,96.01 101.86,144 19.75,27.93 37.99,58.99 61.4,84 49.04,52.4 123.34,78.46 189.02,39.4 21.09,-12.55 37.18,-28.82 54,-46.4 14.57,78.51 9.15,161.14 23.46,240 8.2,45.16 30.98,91.53 45.84,135 9.32,27.24 9.29,57.4 17.47,85 16.24,54.78 42.46,108.06 55.27,163.71 9.76,42.39 -2.1,89.44 5.42,132.29 13.11,74.7 36.01,147.97 47.11,223 20.87,140.98 29.62,285.08 39.34,427 1.92,28 5.59,59.02 2.92,87 -6.02,63 -28.61,124.51 -38.39,187 -7.67,48.98 -6.14,100.55 -9.53,150 -2.66,38.79 -9.47,80.18 -7.53,119 3.31,66.51 18.19,133.88 26.34,200 9.2,74.73 12.04,150.56 22.71,225 5.62,39.26 17.44,78.27 25.99,117 11.51,52.07 24.51,102.65 42.27,153 6.44,18.25 12.52,36.64 18.64,55 2.24,6.72 7.78,16.61 7.4,23.71 -0.24,4.44 -6.1,9.02 -8.73,12.29 -7.38,9.18 -14.72,18.42 -21.57,28 -23.91,33.44 -44.28,69.02 -62.17,106 -33.86,69.99 -55.91,146.65 -69.68,223 -9.38,51.98 -16.69,105.27 -10.29,158 8.39,69.26 24.44,137.41 41.34,205 22.45,89.8 41.01,183.76 72.06,271 51.82,145.6 138.93,287.75 278.31,363.31 35.67,19.34 74.16,33.72 114,41.69 44.97,8.99 91.08,8.3 136,-1 220.06,-45.57 353.12,-267.87 398.42,-473 11,-49.78 23.74,-103.74 22.57,-155 -1.89,-82.39 -22.95,-165.32 -42.62,-245 -19.76,-80.08 -38.85,-160.54 -60.95,-240 -38.62,-138.91 -113.79,-272.64 -227.42,-363.4 -44.16,-35.27 -102.72,-71.88 -160,-79.6 -2.37,-29.03 -16.36,-59.46 -25.33,-87 -19.25,-59.07 -41.7,-118.78 -56.91,-179 -6.16,-24.39 0.24,-55.04 0.24,-80 0,-33.05 1,-65.98 1,-99 0,-21.03 -1.96,-44.22 1.21,-65 2.86,-18.74 20.16,-41.23 29.01,-58 21.3,-40.37 42.24,-81.12 62.53,-122 14.12,-28.45 20.88,-61.9 30.92,-92 21.98,-65.95 44.81,-134.15 50.33,-204 h 1 c 3.45,43.66 7.03,87.31 10.09,131 1.5,21.44 7.09,45.62 4.8,67 -1.1,10.29 -12.33,16.69 -13.7,27 -7.83,58.64 -2.64,120.87 -5.23,180 -1.22,27.93 -2.96,56.01 -2.96,84 0,9.66 -2.65,20.47 -0.72,30 2.98,14.77 19.33,31.28 27.3,44 23.59,37.68 48.65,74.46 72.47,112 8.83,13.9 25.19,30.84 28.83,47 9.53,42.37 13.52,87.02 19.85,130 2.41,16.4 2.79,35.23 7.9,51 6.06,18.67 21.88,37.18 31.97,54 22.85,38.08 45.59,76.25 68.98,114 15.38,24.83 30.08,50.1 45.36,75 4.8,7.83 10.61,24.06 18.44,28.97 9.35,5.87 30.79,2.59 41.62,3.07 31.61,1.38 63.43,2.89 95,5.05 56.22,3.85 113.61,0.91 170,0.91 31.9902,0 68.4802,4.94 100.0002,-0.33 32.55,-5.43 67.12,-25.5 98,-37.25 22.29,-8.47 50.74,-14.85 70.83,-27.64 9.93,-6.33 17.65,-21.52 24.82,-30.78 21.67,-28.01 42.53,-65.65 69.36,-88.68 27,-23.15 59.82,-41.65 88.99,-62.04 63.3002,-44.23 126.7402,-88.28 190.0002,-132.56 24.29,-17.01 48.85,-33.66 73,-50.86 9.96,-7.09 23.66,-13.64 31.61,-22.95 8.25,-9.68 13.65,-23.75 19.7,-34.91 11.8,-21.77 24.07,-43.29 36,-65 19.33,-35.21 44.56,-70.73 59.48,-108 14.75,-36.82 19.02,-82.23 27.63,-121 10.1,-45.45 26.45,-92.73 31.41,-139 6.06,-56.65 -5.75,-115.55 2.47,-172 11.02,-75.63 53.57,-146.38 64.7,-222 h 1 c -2.26,16.76 -8.02,33.59 -12.13,50 -1.31,5.25 -5.76,14.69 -4.17,19.96 2.81,9.31 21.93,19.06 29.3,25.12 27.23,22.41 56.83,53.63 88,70.02 19.16,10.08 49.75,10.05 71,14.3 5.02,1 21.56,1.38 22.39,7.66 1.34,10.09 -4.39,23.91 -6.14,33.94 -5,28.73 -10.62,57.39 -16.25,86 -15.19,77.22 -28.9,154.73 -43.8,232 -5.08,26.32 -9.75,52.72 -15,79 -2.61,13.04 -8,28.72 -7.7,42 0.29,12.74 15.49,30.97 21.64,42 18.17,32.57 35.83,65.43 54,98 65.09,116.67 129.8,233.63 193.63,351 20.01,36.79 40.24,73.52 60.81,110 4.38,7.78 13.47,34.25 21.81,37.3 3.73,1.37 9.27,-2.33 12.61,-3.7 11.37,-4.63 22.68,-9.42 34,-14.18 27.95,-11.73 56.05,-23.11 84,-34.84 13.85,-5.82 29.21,-14.95 44,-17.58 -16.65,59.08 -29.49,119.45 -44.37,179 -33.04,132.16 -86.83,271.48 -36.05,406 9.28,24.6 21.53,52.82 38.75,72.99 39.72,46.51 94.64,71.9 147.67,99.27 65.37,33.74 130.94,67.19 196,101.52 74,39.05 148.27,77.84 223,115.47 19.76,9.95 37.26,20.55 59,25.33 5.31,1.16 15.91,5.5 20.91,2.65 8.72,-4.99 16.32,-19.33 22.44,-27.23 15.82,-20.44 31.87,-40.7 47.86,-61 28.6,-36.33 57.06,-72.77 85.79,-109 15.5,-19.54 33.64,-38.86 46.87,-60 13.53,-21.6 20.96,-48.75 31.44,-72 13.8,-30.62 18.94,-65.51 27.06,-98 l 44,-176 c 46.24,-184.93 92.33,-369.93 138,-555 24.28,-98.38 48.93,-196.69 73.5,-295 13.81,-55.23 35.07,-113.54 34.41,-171 -0.13,-11.05 -6.04,-23.5 -9.26,-34 -5.89,-19.26 -11.07,-38.75 -17,-58 -8.16,-26.56 -15.97,-53.28 -23.6,-80 -3.35,-11.76 -5.41,-28.78 -12.15,-38.99 -5.86,-8.87 -17.34,-16.02 -25.27,-23.06 -11.87,-10.54 -23.67,-23.35 -37,-31.98 -19.37,-12.55 -41.7,-21.3 -62,-32.28 -19.9,-10.76 -42.29,-26.42 -64,-32.69 11.24,-15.96 35.73,-30.66 42.4,-49 2.5,-6.89 1.19,-16.7 1.69,-24 l 4,-60 c 3.77,-54.99 7.23,-110.01 11,-165 1.73,-25.28 2.68,-50.78 5.08,-76 1.12,-11.78 5.4,-29.57 2.33,-41 -3.13,-11.65 -12.4,-23.45 -18.19,-34 -13.74,-25.01 -27.22,-50.19 -41.31,-75 -5.63,-9.91 -22.24,-30.59 -21.55,-42 0.64,-10.5 9.92,-24.42 14.24,-34 10.18,-22.56 20.04,-45.3 29.89,-68 26.5,-61.11 53.35,-122.08 80.28,-183 13.43,-30.37 31.85,-62.04 40.84,-94 17.65,-62.76 -0.15,-134.38 -4.61,-198 -3.84,-54.7 -8.7,-109.41 -13.92,-164 -2.18,-22.77 -0.25,-48.98 -6.47,-71 -5.67,-20.08 -11.38,-43.32 -20.69,-62 -15.73,-31.53 -37.96,-61.09 -56.58,-91 -32.98,-52.94 -64.8,-106.75 -98.87,-159 -20.78,-31.86 -56.06,-46.2 -89.56,-59.6 l -111,-44.4 c -24.41,-9.76 -52.13,-26.17 -78,-30.67 -15,-2.61 -30.82,1.69 -46,0.58 -18.66,-1.37 -37.73,-8.75 -56,-12.7 -8.51,-1.84 -29.44,-3 -35.27,-9.64 -4.73,-5.39 -4.49,-17.75 -5.94,-24.57 -4.37,-20.58 -8.63,-41.29 -12.37,-62 -11.45,-63.49 -8.1,-131.67 -12.51,-196 -3.66,-53.49 -10.21,-108.35 -8.9,-162 1.54,-62.6 9.62,-125.52 13.9,-188 2.96,-43.12 3.8,-87.13 9.38,-130 10.41,-79.97 30.24,-159.72 45.1,-239 50.77,-270.93 114.23,-542.57 140.78,-817 7.71,-79.69 16.03,-159.33 24,-239 3.8,-38.03 12.66,-78.83 11.7,-117 -1.01,-40.46 -15.25,-84.13 -22.45,-124 -9.42,-52.23 -13.27,-110.55 -29.64,-161 -4.85,-14.94 -16.48,-29.44 -24.36,-43 -16.27,-28.04 -32.72,-55.96 -49,-84 -34.42,-59.31 -67.98,-120.86 -107.46,-177 -36,-51.21 -77.1,-99.41 -115.31,-149 -84.89,-110.164 -170.41,-219.83398 -255.3,-329.99998 -38.84,-50.402 -82.12,-99.196 -117.6,-152 -40.56,-60.368 -67.63,-129.79 -107.06,-191 -18.66,-28.97401 -35.65,-62.79601 -58.02,-88.98501 -16.48,-19.298 -38.09,-35.799 -56.67,-53.105 -38.45,-35.819 -77.02,-71.634 -115,-107.94899 -21.49,-20.546 -43.25,-40.7881 -65,-61.0508 -6.9,-6.4288 -16.3,-19.9131 -26,-21.6817 -46.15,-8.4131 -96.22,-7.2197 -143,-9.2676 -80.25,-3.51363 -160.67,-4.00778 -241,-5.97555 -33.62,-0.82324 -67.36,-2.985349 -101,-2.985349 -9.96,0 -28.24,-4.21778 -37,0.432619 -27.85,14.79488 -53.34,42.63668 -78,62.36718 -56.4602,45.1742 -112.5402,90.82619 -169.0002,136.00019 -21.4,17.12 -42.6,34.48 -64,51.599 -6.05,4.841 -17.17,17.81 -25,18.594 -6.25,0.625 -16.8,-8.621 -22,-11.804 -18.95,-11.608 -37.95,-23.15 -57,-34.588 -53.48,-32.107 -106.97,-64.326 -160,-97.17699 -22.6702,-14.046 -49.3702,-25.897 -69.9902,-42.8029 -21.09,-17.2988 -37.94,-43.209 -56.06,-63.6211 -5.07,-5.7158 -13.38,-20.118159 -21.95,-19.640619 -17,0.94824 -35.35,8.516619 -52,12.216819 -41.75,9.2763 -83.5,19.1904 -125,29.5508 -20.91,5.2207 -53.81,6.206 -71.96,17.7275 -8.3,5.2666 -15.03,16.6318 -21.29,24.1455 -13.93,16.723 -28.06,33.278 -42,49.99999 -46.22,55.466 -92.58,110.848 -139.17,166 -62.41,73.86601 -127.9,146.41701 -186.93,223.00001 -101.7,131.934 -195.4,271.433 -301.32,399.97998 -8.04,9.759 -32.59,5.02 -44.33,5.02 -24.9,0 -50.17,0.611 -75,-1.089 -16.72,-1.145 -36.39,-5.579 -53,-3.723 -9.63,1.075 -21.2,18.908 -27.29,25.812 -22.12,25.082 -55.24,50.14 -70.71,80 m 3693.0004,4149 c 11.52,27.67 29.4,53.65 43.69,80 27.38,50.51 55.18,100.83 83.17,151 32.65,58.53 62.09,116.6 34.13,184 -9.56,23.04 -27.41,39.83 -43.82,58 -23.25,25.74 -46.73,51.27 -70,77 -19.94,22.05 -40.11,43.9 -60,66 -10.32,11.46 -20.55,26.11 -33.17,35 v 1 c 83.08,43.71 167.9,84.63 250,130.14 41.05,22.76 81.88,36.13 101.14,82.86 19.66,47.7 7.13,94.4 -4.77,142 l -41.47,166 c -62.24,248.94 -124.28,498.02 -186.53,747 -17.41,69.67 -34.58,139.34 -52,209 -8.96,35.86 -16.93,75.7 -50.37,97.3 -35.84,23.16 -71.6,1.09 -104,-17.3 -66.16,-37.55 -135.39,-70.84 -203,-105.74 -73.09,-37.73 -146.65,-74.82 -219,-113.95 -34.45,-18.63 -75.41,-31.43 -96.94,-66.31 -43.8,-70.97 -5.21,-159.91 13.07,-233 28.99,-115.99 57.75,-232.01 86.74,-348 15.04,-60.16 32.6,-120.27 45.13,-181 -35.27,30.51 -67.06,100.46 -124,83.96 -30.92,-8.96 -45.85,-35.63 -60.31,-61.96 -19.6,-35.7 -39.39,-71.3 -59,-107 -69.8,-127.1 -140.89,-253.52 -210,-381 -31.17,-57.5 -80.7,-119.64 -83.65,-187 -2.53,-57.7 28.32,-93.68 64.79,-134 41.17,-45.52 85.42,-89.42 124.17,-137 -92.52,-11.95 -185.47,-34.61 -277,-52.8 -43.09,-8.56 -85.48,-9.95 -110.94,-51.2 -23.87,-38.68 -21.36,-81.83 -17.23,-125 3.43,-35.93 6.33,-72.01 9.17,-108 h -1 c -39.72,83.94 -113.94,149.51 -157.68,231 -10.81,20.15 -17.9,42.92 -26.74,64 -7.58,18.06 -18.03,36.96 -22.68,56 -9.53,39.04 -12.97,79.13 -24.32,118 -8.23,28.15 -17.65,56.12 -29.44,83 -7.68,17.5 -19.44,35.62 -24.51,54 -4.44,16.15 -0.63,38.24 -0.63,55 0,45.73 4.15,95.74 -2.3,141 -5.55,38.89 -17.76,77.65 -26.28,116 -6.75,30.39 -10.32,64.97 -21.54,94 -17.04,44.1 -47.79,86.51 -70.57,128 -20.66,37.61 -38.9,79.23 -65.52,113 -45.41,57.61 -113.88,91.08 -181.7902,114.66 -21.1,7.32 -42.52,13.79 -64,19.91 -8.96,2.56 -21.34,3.38 -29,8.85 -34.38,24.54 -68.6,47.73 -95.75,80.58 -12.09,14.63 -22.96,30.23 -33.51,46 -4.72,7.06 -9.1,18.03 -15.95,23.18 -17.1,12.87 -46.74,18.77 -66.79,26.4 -18.66,7.1 -39.3,18.81 -59,22.09 -41.55,6.94 -89.8202,0.33 -132.0002,0.33 -39.62,0 -80.58,2.92 -120,-0.83 -20.58,-1.96 -42.33,-3.15 -63,-3.17 -6.22,0 -21.62,1.35 -26.47,-2.6 -13.45,-10.97 -23.36,-37.45 -32.33,-52.4 -19.23,-32.06 -38.48,-64.12 -58.01,-96 -8.13,-13.27 -22.4,-29.71 -25.71,-45 -10.17,-46.87 -13.99,-95.65 -21.73,-143 -2.69,-16.46 -2.02,-37.57 -8.31,-53 -3.33,-8.15 -12.61,-15.48 -18.39,-22 -12.11,-13.64 -23.66,-27.76 -35.05,-42 -42.15,-52.69 -87.24,-115.75 -93.83,-185 -2.97,-31.16 6.55,-62.36 27.12,-86 7.57,-8.7 16.4,-16.09 25.71,-22.85 3.59,-2.6 9.71,-5.22 10.25,-10.16 2.05,-18.51 -5.87,-42.38 -8.09,-60.99 -5.3,-44.23 -10.03,-88.59 -13.07,-133 -4.91,-71.59 -7.26,-143.28 -9.06,-215.04 -0.74,-29.29 3.99,-60.99 -0.17,-89.96 -1.21,-8.38 -11.29,-16.45 -16.23,-23 -12.97,-17.18 -25.53,-34.54 -36.63,-53 -26.78,-44.54 -47.58,-91.74 -64,-141 -6.91,-20.73 -16.21,-44.13 -18,-66 h -1 c -9.69,40.22 -11.89,83.96 -17.28,125 -14.02,106.6 -28.21,213.19 -47.3,319 -7.45,41.31 -11.2,85.77 -23.14,126 -10.45,35.21 -22.33,70.16 -33.95,105 -5.78,17.36 -9.74,36.47 -17.59,53 -32.24,67.85 -75.79,132.38 -101.69,203 -15.42,42.07 -23.06,87.36 -25.01,132 -3.12,71.3 4.7,147.77 22.44,217 21.76,84.92 57.46,166.22 79.79,251 9.23,35.08 14.18,73.03 18.73,109 55.94,0 107.92,25.12 152,58.13 65.66,49.16 120.21,113.79 164.05,182.87 148.24,233.59 211.7,522.85 92.26,783 -57.87,126.06 -167.98,241.55 -314.31,247.96 -133.39,5.84 -246.45,-88.65 -312.2,-196.96 -80.1,-131.95 -98.19,-279.86 -99.8,-431 -0.85,-79.19 1.73,-158.18 10.17,-237 9.27,-86.63 26.07,-174.08 61.69,-254 11.2,-25.12 26.6,-48.28 44.56,-69 4.75,-5.47 22.52,-16.8 22.5,-24.01 -0.04,-21.53 -16.76,-50.51 -23.59,-70.99 -20.3,-60.9 -47.31,-122.57 -62.09,-185 -13.39,-56.55 -28.65,-113.79 -38.78,-171 -11.62,-65.66 -12.99,-134.64 -19.63,-201 -6.66,-66.53 -18.68,-132.6 -26.54,-199 -3.77,-31.8 3.43,-68.08 5.62,-100 3.07,-44.82 1.61,-91.61 8.53,-136 10.3,-66.1 32.59,-130.69 41.26,-197 3.74,-28.65 -2.39,-62.08 -3.66,-91 -3.35,-76.44 -8.84,-152.79 -16.21,-229 -7.99,-82.56 -11.84,-168.35 -26.29,-250 -12.62,-71.26 -35.03,-141.38 -45.24,-213 -4.74,-33.23 -3.46,-69.43 -4.29,-103 -0.32,-13.13 1.34,-28.17 -1.54,-41 -13.55,-60.32 -41.69,-118.94 -60.12,-178 -8.69,-27.85 -8.71,-58.28 -17.71,-86 -8.46,-26.06 -17.29,-52.26 -26.69,-78 -5.86,-16.04 -14.42,-34.04 -16.66,-51 -10.31,-78.15 -16,-157.47 -21.38,-236 -2.51,-36.59 -8.65,-75.37 -6.87,-112 1.71,-35.06 27.69,-68.3 32.62,-103 1.81,-12.76 -1.69,-28.13 -2.57,-41 -2.06,-30.09 -5.09,-60.84 -5.09,-91 -20.49,18.73 -35.78,49.23 -51.72,72 -34.85,49.79 -69.84,99.52 -105.14,149 -20.88,29.27 -40.76,72.01 -79.14,80.33 -35.46,7.69 -60.57,-16.7 -79.42,-43.33 -22.41,-31.65 -44.61,-63.45 -67.16,-95 -79.96,-111.85 -157.88,-225.15 -237.84,-337 -27.3,-38.19 -54.05,-76.77 -81.289,-115 -13.821,-19.4 -32.081,-39.51 -42.291,-61 h -1 c 0.023,34.4 7.408,69.76 10.831,104 3.357,33.57 3.683,70.16 11.405,103 7.431,31.6 26.679,62.84 30.58,95 9.294,76.62 -7.861,156.24 0.358,233 6.225,58.14 24.846,117.85 37.406,175 18.34,83.52 31.24,167.72 45.5,252 6.27,37.02 27.98,76.14 41.92,111 4.95,12.38 13.81,27.67 14.91,41 5.24,63.95 -4.83,129.02 1.26,193 9.62,101.12 19.43,201.59 23.87,303 1.65,37.63 7.9,77.39 4.87,115 -2.48,30.64 -23.35,59.31 -25.82,90 -3.26,40.62 -1.09,82.25 -1.09,123 0,98.29 3.66,195.88 7.96,294 1.83,41.66 2.1,83.42 4.95,125 0.91,13.27 -2.18,30.12 1.41,42.89 1.26,4.51 7.85,5.63 11.68,7.06 11.18,4.17 22.38,8.87 33,14.31 36.83,18.88 73,44.98 100.83,75.74 86.9,96.04 136.98,213.56 156.75,341 24.15,155.76 23.89,319.16 -6.58,474 -13.88,70.52 -33.49,141.47 -65.75,206 -55.19,110.38 -148.37,208.78 -281.25,202.96 -138.183,-6.05 -250.82699,-98.72 -320.81099,-212.96 -136.023,-222.05 -103.225,-500.81 -40.073,-741 25.355,-96.43 61.771,-197.56 122.011,-278 22.35599,-29.85 54.18999,-67.69 91.87299,-78 -4.387,-23.63 -3.448,-49.04 -5.089,-73 l -11,-161 c -10.547,-154 -21.275,-308 -31.822,-462 -4.863,-71.02 -4.324,-144.55 -14.389,-215 -5.345,-37.41 -18.208,-75.46 -27.81599,-112 -16.137,-61.38 -32.143,-122.74 -48.733,-184 -64.08,-236.6 -141.686,-469.16 -223.843,-700 -48.884,-137.35 -103.057,-272.76 -154.884,-409 -19.57,-51.45 -39.731,-102.67 -59.613,-154 -9.849,-25.43 -18.01,-52.48 -29.942,-77 -9.66,-19.85 -23.78,-38.27 -35.445,-57 -25.229,-40.51 -51.563,-81.05 -81.848,-118 -11.923,-14.55 -24.243,-28.73 -37.576,-42 -6.709,-6.68 -16.95,-12.67 -21.583,-21 -21.589,-38.86 -31.915,-90.7 -40.028,-134 -26.069,-139.13 -10.178,-282.64 13.861,-421 37.548,-216.12 103.808,-423.1 168.725,-632 60.285,-193.99 123.714,-387 184,-581 16.014,-51.53 29.221,-106 49.478,-156 21.598,-53.317 56.87,-106.66 91.896,-151.99998 35.159,-45.512 77.965,-89.759 133.651,-108.921 101.50299,-34.929 208.22999,27.789 295.99999,71.674 220.27,110.13698 431.89,228.49698 614,396.24698 0.13,-14.88 11.59,-28.59 20.13,-40 19.25,-25.71 40.05,-50.36 61.78,-74 8.05,-8.74 19.03,-26.98 30.18,-31.4 6.99,-2.76 16.64,0.36 23.91,0.4 21.05,0.1 41.95,1 63,1 23.17,0 46.89,-1.49 70,0.09 6.37,0.44 22.37,4.3 27.24,-0.42 20.1,-19.5 34.42,-52.39 50.26,-75.67 36.01,-52.912 73.08,-105.29102 112.15,-155.99998 130.15,-168.913 266.72,-332.743 405.08,-495 47.41,-55.59601 94.12,-111.84201 140.86,-168.00001 22.66,-27.229 51.28,-61.95399 89.41,-65.82899 39.72,-4.037 69.04,23.88099 89.67,54.82899 6.92,10.388 12.64,27.71 22.37,35.391 29.79,23.513 67.39,41.267 99.96,60.809 63.8402,38.302 127.5302,76.93701 191.0002,115.86101 24.6,15.086 49.27,30.068 74,44.939 6.52,3.92 20.16,16.32 27.91,15.748 5.36,-0.396 11.59,-11.867 14.69,-15.748 12.95,-16.185 26.01,-32.29 39.53,-48 50.32,-58.47201 102.84,-115.02601 163.87,-162.57601 103.5902,-80.705 248.0702,-125.16419 379.0002,-98.97499 24.9,4.982 49.85,12.29099 73,22.85999 13.26,6.056 27.86,17.742 41.71,21.397 6.16,1.622 16.06,-2.968 22.29,-4.092 13.58,-2.448 28.22,-3.755 42,-2.444 65.54,6.235 118.79,46.264 161.83,93.83 46.16,51.018 83.71,109.32601 120.86,167.00001 18.96,29.435 40.34,58.198 57,89 19.51,36.057 37.5,72.937 57,109 6.71,12.41 11.87,27.99 20.7,38.985 17.21,21.416 43.85,37.75 63.61,57.03 47.14,45.981 91.8,94.012 133.58,144.985 120.36,146.85998 219.05,309.93998 318.84,470.99998 66.16,106.78 147.28,209.52 166.15,337 13.61,91.92 0.5,190.04 -8.4,282 -20.37,210.56 -60.19,416.72 -101.72,624 -42.2,210.63 -91.55,420.77 -112.28,635 -20.37,210.55 -22.55,418.47 0,629 6.18,57.73 14.92,116.82 33.5,172 8.92,26.49 22.02,55.68 46.33,71.3 25.53,16.4 55.38,6.11 83,13.18 14.17,3.62 22.67,18.43 35,21.75 6.81,1.83 17.92,-2.37 25,-3.06 15.9,-1.54 33.05,-2.52 49,-1 68.35,6.51 130.54,33.94 183,78.25 69.33,58.57 118.6,138.2 150.42,222.58 63.6,168.61 63.03,362.7 -1,531 -27.07,71.17 -68.58,141.76 -125.42,193.17 -16.2,14.65 -35.21,34.95 -56,42.83 m -2539.0004,-3958 c -12.42,-96.16 5.72,-186.48 39.58,-277 9.16,-24.495 17.42,-51.16202 30.3,-73.99998 10.6,-18.804 26.07,-35.512 38.7,-53 28.62,-39.644 57.96,-78.874 87.2902,-118 30.88,-41.182 61.15,-82.801 92,-124 12.86,-17.164 35.4,-38.708 42.13,-59 -88.68,-60.326 -175.8202,-122.964 -264.0002,-184.02401 -15.23,-10.548 -31.77,-20.441 -46,-32.301 -15.73,-13.108 -30.22,-29.589 -53,-24.172 -24.46,5.816 -32.77,29.203 -47.15,46.497 -33.56,40.37201 -69.66,78.62901 -103.26,119.00001 -114.08,137.067 -225.46,276.79 -317.39,430 -23.49,39.14598 -45.03,79.16898 -65.45,119.99998 -7.04,14.08 -22.31,36.21 -23.21,52 -0.51,8.81 18.76,22.29 24.88,27.75 25.75,22.92 50.21,47.87 74.58,72.25 -23.81,8.67 -45.42,22.33 -70,29.97 -53.48,16.63 -111.59,19.14 -167,13.86 -62.91,-5.99 -126.75,-19.64 -190,-16.87 -37.69,1.65 -74.62,9.62 -104,35.04 v 1 c 38.9,35.84 80.9,68.62 121,103.13 20.6,17.73 42.91,43.39 67,55.87 l -76.25,148 -25.75,51 c -51.22,-29.19 -93.14,-76.24 -142,-109.33 -40.36,-27.34 -81.05,-54.36 -122,-80.81 -21.03,-13.59 -49.42,-27.03 -66.79,-45.04 -14.26,-14.8 -22.31,-45.1 -30.9,-63.82 -3.13,-6.81 -5.87,-17.32 -11.53,-22.39 -10.05,-8.99 -24.33,-14.94 -35.78,-22.03 -25.8,-15.98 -51.98,-31.37 -78,-46.98 -87.49,-52.49 -176.17,-103.4 -269,-145.91 -69.46,-31.802 -141.422,-59.23 -216,-76.341 -32.677,-7.498 -63.02299,-17.139 -96.99999,-13.063 -71.947,8.63 -125.184,65.614 -162.053,123.714 -10.462,16.49 -22.341,33.73 -29.483,52 -7.316,18.72 -9.299,40.49 -14.09,60 -37.956,154.57 -71.441,310.62 -105.95,466 -15.303,68.9 -26.373,141.72 -47.644,209 -5.991,18.95 -18.499,37.01 -26.999,55 -16.381,34.68 -31.43,70.05 -44.831,106 -65.127,174.69 -89.512,359.43 -84.965,545 1.307,53.32 -11.996,106.92 -0.774,160 3.81,18.02 10.623,38.23 27.789,47.69 6.763,3.72 19.209,3.04 24.49,7.9 8.362,7.7 11.109,32.55 14.485,43.41 107.128,344.73 273.467,666.4 394.333,1006 24.105,67.73 48.462,136.45 66.808,206 15.623,59.23 25.297,120.93 37.333,181 20.57199,102.67 42.38799,204.94 60.97499,308 16.886,93.63 33.12,187.37 50,281 7.949,44.09 18.025,88.52 23.29,133 4.666,39.41 3.588,80.33 5.326,120 3.39,77.34 7.61,154.63 11,232 6.17,140.94 19.96,282.92 19.96,424 l 52,-1 c 0,-147.08 -11.53,-295.08 -17.96,-442 -4.11,-93.88 -4.71,-188.25 -11.13,-282 -5.53,-80.76 -15.94,-161.42 -23.74,-242 -5.11,-52.81 -7.74,-106.49 -15.38,-159 -3.16,-21.74 -14.24,-44.01 -20.764,-65 -19.911,-64.07 -46.42,-127.79 -62.127,-193 -15.277,-63.42 -19.469,-132.33 -28.181,-197 -12.75,-94.64 -30.238,-189.08 -40.55199,-284 -13.109,-120.63 -16.965,-242.94 -25.255,-364 -15.411,-225.03 -32.41,-449.96 -47.822,-675 -3.067,-44.79 15.25,-91.27 17.536,-136 1.935,-37.86 -5.942,-78.17 -8.536,-116 -2.897,-42.28 -1.351,-88.38 -9.317,-129.96 -2.95,-15.4 -36.495,-15.72 -39.365,-31.05 -2.472,-13.22 1.527,-29.53 1.592,-42.99 0.116,-24.1 -2.857,-53.52 2.53,-77 4.762,-20.75 18.294,-47.48 28.885,-65.99 6.803,-11.88 25.661,-13.86 30.567,-27.01 14.759,-39.57 25.328,-80.93 38.686,-121 4.887,-14.66 7.47,-35.15 16.03499,-48 21.252,-31.88 60.354,-51.08 82.799,-82 6.77,-9.33 9.389,-24.15 13.155,-35 14.117,-40.67 28.464,-81.25 42.344,-122 5.93,-17.4 14.24,-34.99 18,-53 4.39,-21.04 9.25,-41.99 13.79,-63 1.35,-6.25 1.84,-19.97 6.72,-24.4 8,-7.25 34.79,-5.93 45.49,-7.68 31.41,-5.15 62.73,-9.69 94,-15.72 12.84,-2.48 31.04,-9.97 44,-8.25 13,1.72 31.33,20.58 42,28.19 33.24,23.72 66.43,47.59 100,70.84 48.85,33.82 97.29,68.27 146,102.3 22.57,15.77 50,29.88 69.91,48.9 13.35,12.77 23.42,31.03 34.46,45.82 24.91,33.36 48.67,66.3 70.08,102 17.74,29.59 33.54,57.98 46.35,90 3.81,9.54 13.14,24.74 12.9,35 -0.19,8.28 -13.89,20.6 -18.82,27 -20.6,26.75 -35.06,51.86 -66.88,64.99 -13.01,5.37 -26.05,10.65 -39,16.16 -4.05,1.72 -12.27,3.27 -13.68,8.06 -3.37,11.39 2.33,30.02 3.51,41.79 4.37,43.74 16.71,89.55 38.75,128 19.3,33.66 36.34,69.93 58.17,102 37.52,55.15 82.77,106.59 124.04,159 11.92,15.14 22.86,32.14 36.3,45.96 17.6,18.1 39.5,33.3 58.91,49.45 12.8,10.66 26.78,26.81 42,33.59 20.46,-38.85 44.54,-76.03 66.58,-114 15.28,-26.34 29,-55.67 47.32,-80 59.22,-78.68 123.03,-155.73 186.54,-231 25.44,-30.15 56.39,-57.14 79.63,-89 11.91,-16.32 19.14,-37.92 28.18,-56 18.62,-37.25 37.35,-74.51 55.49,-112 9.01,-18.63 16.91,-46.31 30.9,-61.61 9.84,-10.78 32.31,-17.11 45.36,-23.64 16.65,-8.32 28.6,-19.98 42,-32.79 42.62,-40.75 90.32,-80.2 128.7,-124.96 33.63,-39.23 60.25,-85.14 95.39,-123 37.56,-40.46 85.59,-72.15 121.38,-114.17 9,-10.57 14.63,-25.72 21.39,-37.83 14.28,-25.59 28.48,-51.24 42.45,-77 36.24,-66.85 85.2602,-133.86 103.7902,-208 7.57,-30.25 14.9,-61.01 18.61,-92 3.18,-26.49 2.43,-51.5 12.1,-77 5.5,-14.51 12,-36.84 23.57,-47.68 8.15,-7.64 35.6,-6.15 46.62,-7.48 36.35,-4.35 72.7,-8.83 109,-13.56 11.08,-1.44 33.31,0.19 42.47,-6.27 6.05,-4.26 9.65,-15.68 13.25,-22.01 10.36,-18.23 20.49,-36.62 30.59,-55 20.19,-36.769 38.28,-79.369 63.3,-112.99998 12.51,-16.816 29.19,-31.661 43.48,-47 4.11,-4.417 11,-14.635 16.92,-16.223 21.5702,-5.784 49.0702,19.374 70.9902,14.866 11.88,-2.443 26.89,-28.546 34.58,-37.643 l 48.84,-58 c 6.4,-7.576 17.26,-16.479 20.44,-26 4.63,-13.881 4.25,-31.467 5.98,-46 0.77,-6.389 0.12,-13.883 7.16,-16.521 10.74,-4.019 28.54,-11.328 40,-10.764 19.01,0.936 44.24,17.582 62,24.684 29.53,11.813 52.59,36.165 77,56.177 46.47,38.093 92.37,76.908 139,114.813 45.28,36.812 95.72,72.40496 136.96,113.65098 48.08,48.074 87.35,108.35 130.46,160.96 87.58,106.85 177.61,211.81 265.99,318 81.99,98.5 189.72,189.35 227.87,316 23.64,78.49 23.21,160.25 32.88,241 6.63,55.38 14.36,110.62 21,166 2.91,24.33 8.79,49.52 9.38,74 0.65,26.37 -4.61,53.69 -6.45,80 -5.92,84.48 -19.86,167.72 -27.92,252 -4.11,43.01 3.6,88.4 -3.5,131 -2.52,15.18 -10.14,30.42 -15,45 -11.14,33.4 -22.87,66.6 -34,100 -4.72,14.15 -12.89,30.18 -14.5,45 -2.15,19.84 1.05,42.03 1.79,62 1.72,46.15 3.49,91 7.87,137 6.89,72.38 8.29,145.46 13.26,218 2.11,30.82 10.07,61.2 11.83,92.01 3.2,55.93 3.67,112.01 6.12,167.99 1.2,27.33 4.8,55.66 3.49,83 -1.23,25.87 -20.13,53.19 -18,79 1.95,23.6 8.84,47.68 13.05,71 5.56,30.83 9.69,62.62 17.32,93 15.82,63.02 40.28,125.32 60.77,187 23.13,69.66 40.62,143.88 75.33,209 21.41,-17.43 36.67,-45.52 57,-64.96 5.21,-4.98 22.03,-14.77 22.98,-22.08 0.82,-6.3 -9.19,-17.58 -12.26,-22.96 -11.79,-20.68 -24.08,-41.05 -35.41,-62 -35.19,-65.06 -61.79,-135.34 -79.94,-207 -55.91,-220.8 -60.24,-454.68 -50.33,-681 3.15,-72.05 9.89,-143.97 12.92,-216 0.52,-12.25 -7.93,-24.47 -11.62,-36 -5.9,-18.47 -8.8,-38.62 -8.33,-58 1.22,-49.5 20.12,-95.12 36.45,-141 15.25,-42.85 26.75,-87.44 39.82,-131 47.83,-159.43 88.96,-323.07 105.55,-489 18.83,-188.29 3.64,-377.1 -54.17,-558 -39.83,-124.63 -100.71,-241.76 -172.16,-351 -42.92,-65.61 -99.21,-124.82 -149.42,-185 -90.6,-108.583 -181.27,-217.27098 -270.47,-326.99998 -35.01,-43.063 -75.81,-84.126 -107.02,-130 -39.89,-58.633 -72.51,-121.558 -114.71,-179 -21.48,-29.249 -42.82,-58.629 -65.48,-87.00001 -8.7,-10.895 -17.6,-26.886 -28.84,-35.156 -7.12,-5.242 -19.2,-6.518 -27.56,-9.188 -21.59,-6.891 -43.25,-13.714 -65,-20.08 -28.13,-8.233 -55.87,-17.766 -84,-26 -10.31,-3.017 -23.21,-9.93 -34,-9.786 -9.01,0.119 -19.51,5.716 -28,8.543 -17.93,5.972 -36.07,11.355 -54,17.334 -35.2,11.734 -70.56,23.291 -106,34.308 -18.23,5.666 -40.07,9.687 -56.96,18.583 -17.22,9.066 -33.06,40.03901 -44.92,55.44201 -23.69,30.768 -47.7602,61.245 -71.4702,92 -13.08,16.967 -25.39,36.95 -40.74,51.896 -15.52,15.112 -38.3,25.469 -55.91,38.256 -38.17,27.71 -74.5,57.796 -109,89.937 -73.41,68.382 -136.82,146.71 -199.4,224.911 -30.72,38.38296 -63.4602,75.68098 -92.9302,114.99998 -16.53,22.048 -27.88,49.78 -40.98,74 -22.02,40.72 -44.35,81.28 -66.38,122 -10.11,18.69 -18.83,41.59 -32.31,58 m 854.0004,-342.99998 c 7.21,8.71796 20.42,14.85396 30,20.80796 16.84,10.46302 33.26,21.62602 50,32.24502 59.41,37.682 122.66,73.447 179,115.557 28.53,21.32 51.82,55.33 76.09,81.39 58.38,62.69 114.43,128.35 174.91,189 -25.9,-18.03 -49.16,-42.01 -73,-62.72 -50.57,-43.92 -101.72,-87.19 -152,-131.44 -27.93,-24.57 -55.59,-52.79 -86,-74.21 -31.47,-22.16 -74.99,-34.87 -110,-50.939 l -109,-50 c -18.45,-8.469 -37.49,-20.069 -57,-25.691 -29.22,43.317 -54.98,94.68 -89.52,133.83 -17.6702,20.02 -46.1202,35.03 -67.4802,51.04 -43.7,32.76 -87.17,69.5 -135,96.13 5.76,19.59 23.43,39.72 34.32,57 11.1,17.62 22.09,35.32 33.1,53 3.88,6.23 8.45,17.9 14.91,21.68 5.95,3.48 16.89,2.76 23.67,3.49 16.67,1.78 33.37,3.95 50,6.11 15.25,1.99 34.77,7.63 50.0002,5.51 15.14,-2.11 31.92,-12.46 46,-18.37 28.58,-11.99 57.34,-23.59 86,-35.41 53.36,-22.02 110.47,-37.25 166,-53.01 -3.11,21.11 -11.46,42.47 -17.29,63 -3.38,11.89 -5.24,25.91 -10.71,37 -7.25,14.73 -18.24,28.22 -27.14,42 -7.8,12.07 -15.94,31.3 -27.19,40.3 -10.89,8.71 -33.34,11.58 -46.67,15.73 -35.95,11.17 -75.71,20.31 -110,35.77 -11.72,5.28 -21.68,18.43 -31,27.11 -21.22,19.76 -42.1702,40.01 -64.0002,59.09 v 1 c 27.86,20.24 59.6402,36.06 89.0002,54.06 18.41,11.29 38.68,27.84 59,35.1 21.42,7.66 46.69,9.18 69,13.64 7.48,1.5 18.19,1.5 24.83,5.36 9.94,5.8 18.05,21.86 25.17,30.84 21.68,27.34 41.34,58.76 65.61,83.79 6.8,7.01 18.01,11.3 26.39,16.22 27.08,15.91 62.4,29.61 85.9,50.37 7.89,6.97 12.92,19.64 18.3,28.62 12.55,20.97 24.31,42.61 37.8,63 -26.17,-7.16 -51.97,-21.07 -77,-31.58 -62.83,-26.36 -123.74,-54.84 -185,-84.68 -30.52,-14.86 -64.2,-39.58 -97,-48.09 -15.85,-4.11 -39.65,2.14 -56,3.26 -39.71,2.72 -80.2002,7.09 -120.0002,7.09 v 1 c 34.53,11.24 68.7002,23.75 103.0002,35.66 16.79,5.82 37.87,9.55 53,18.9 50.96,31.49 99.89,67.84 149,102.16 22.04,15.4 46.2,37.7 71,48.06 21.95,9.17 50.65,10.55 74,15.22 59.73,11.94 121.03,20.74 180,36 8.97,-20.85 16.7,-48.54 20,-71 h 1 c 2.25,28.4 6.85,64.05 16.08,91 16.59,48.44 46.12,96.1 57.39,146 7,30.99 -1.48,67.21 1.7,99 6.23,62.32 23.83,125.43 35.44,187 18.56,98.41 58.14,193.43 67.38,294 1.09,11.88 -4.45,26.43 -7.11,38 -5.35,23.29 -10.3,46.67 -15.46,70 -10.56,47.84 -16.38,95.33 -21.59,144 -2.57,24.04 -7.76,48.81 -7.83,73 h 1 l 73,-204 h 1 l 5.91,96 3.09,46 h 1 c 9.2,-22.1 29.2,-47.4 32.79,-71 2.32,-15.29 -3.52,-34.7 -5.51,-50 -4.5,-34.58 -9.8,-69.28 -13.11,-104 -5.03,-52.78 -6.46,-106.1 -10.08,-159 -1.37,-19.95 -0.01,-41.33 -3.55,-61 -5.92,-32.87 -26.53,-63.82 -30.35,-97 -2.4,-20.83 2.29,-45.06 3.72,-66 3.17,-46.31 7.09,-93.58 7.09,-140 h 2 c 0.67,15.53 6.22,31.83 9.58,47 8,36.23 17.18,72.5 23.81,109 14.85,81.83 19.72,167.27 39.61,248 h 1 c 0,-41.3 3.23,-82.75 5.04,-124 0.76,-17.31 4.68,-36.81 2.65,-54 -3.04,-25.63 -12.55,-51.95 -18.82,-77 -15.52,-62.1 -33.37,-124.3 -46.2,-187 -9.26,-45.22 -6.43,-95.94 -9.58,-142 -2.53,-36.9 -8.25,-76.23 -6.16,-113.17 1.95,-34.29 11.85,-68.48 12.36,-102.83 0.98,-65.91 -10.16,-131.62 -7.25,-198 1.3,-29.8 3.8,-59.68 9.76,-89 2.17,-10.66 12.71,-27.74 11.35,-38 -2.55,-19.24 -21.19,-43.58 -29.9,-61 -24.53,-49.04 -53.17,-97.37 -74.25,-148 h 1 c 12.02,23.55 34.67,45.34 51.2,66 33.54,41.92 66.29,83.7 102.89,123 19.15,20.57 47.3,42.53 61.1,67 9.01,15.99 12.19,39.31 17.23,57 12.17,42.66 23.23,86.54 39,128 41.91,110.17 75.63,222.46 110.61,335 11.46,36.88 30.85,72.71 40.07,110 15.08,60.95 19.27,125.28 30.9,187 7.68,-18.3 3.28,-47.17 5.17,-67 6.23,-65.48 2.25,-132.32 0.84,-198 -1.39,-65.27 -0.01,-130.72 -0.01,-196 0,-28.14 3.71,-59.17 -0.3,-87 -2.22,-15.39 -10.65,-31.44 -16.02,-46 -8.27,-22.44 -14.81,-46.25 -24.78,-67.99 -6.47,-14.08 -28.37,-26.83 -39.9,-37.06 -25.93,-23.01 -51.98,-45.89 -78,-68.79 -12.91,-11.37 -29.82,-22.49 -40.21,-36.2 -31.72,-41.86 -56.54,-91.29 -84.21,-135.96 -73.22,-118.17 -141.9,-239.29 -221.86,-353 -24.71,-35.14 -47.45,-74.82 -75.9,-107 -47.57,-53.8 -107.94,-98.122 -158.82,-149 -21.82,-21.82398 -44.16,-43.16198 -66,-64.99998 -7.17,-7.167 -17.64,-22.589 -28.01,-24.722 -18.46,-3.793 -42.07,1.721 -60.99,1.722 -7.51,0 -19.14,-2.172 -26,1.175 -27.62,13.48 -48.74,44.243 -74,61.825 m 179,265.99998 14,155 48,-32 c 44.22,75.7 83.2,154.66 126.42,231 13.23,23.36 26.57,46.67 39.86,70 4.67,8.19 14.49,19.59 15.75,29 1.14,8.59 -6.61,22 -9.61,30 -7.82,20.94 -16.54,42.44 -22.42,64 -9.69,-4.72 -17.55,-18.75 -24.41,-27 -17.67,-21.23 -34.52,-43.36 -52.88,-64 -7.22,-8.12 -18.29,-12.21 -27.71,-17.31 -17.06,-9.23 -34.11,-20.2 -52,-27.69 1.63,37.9 6.31,78.91 14.21,116 5.3,24.89 14.77,50.62 16.79,76 l -119,-16 c -10,-79.11 -24.43,-157.83 -18.91,-238 4.66,-67.71 21.76,-137.01 32.83,-204 5.53,-33.47 8.42,-67.37 12.8,-101 1.73,-13.31 0.45,-31.88 6.28,-44 m 332,173 1,2 -1,-2 m -1071.0002,193 c 14.34,-2.15 28.69,-9.07 43,-12.35 24.89,-5.7 51.52,-7.73 77,-6.61 35.93,1.57 72.19,7.69 107,16.84 19.33,5.09 39.34,14.22 59,17.12 -0.59,-12.79 -10.48,-23.29 -18.96,-31.99 -17.33,-17.76 -36.2,-33.5 -56.04,-48.38 -34.97,-26.23 -71.87,-50.31 -111,-69.88 -15.86,-7.93 -35.65,-19.42 -54,-18.71 -11.38,0.44 -21.9,22.85 -27.4,31.96 -23.05,38.21 -32.68,78.71 -18.6,122 m 1072.0002,12 c 0,67.3 -6.49,135.85 -11.09,203 -1.68,24.55 -9.44,58 -4.39,82 4.74,22.56 14.85,45.12 22.15,67 15.23,45.71 30.76,91.3 46,137 6.98,20.95 18.59,44.16 21.72,66 3.12,21.69 -2.14,49.18 -4.22,71 -1.39,14.65 1,31.91 -3.17,46 -8.81,-14.43 -11.55,-37.61 -15.88,-54 -9.28,-35.12 -19.77,-69.93 -29.27,-105 -11.82,-43.64 -25.58,-86.71 -38.57,-130 -5.19,-17.29 -12.99,-35.2 -15.95,-53 -2.85,-17.11 -0.33,-36.65 -0.33,-54 v -108 c 0,-22.44 -3.36,-47.88 0.33,-70 3.15,-18.94 12.26,-38.76 18.34,-57 4.13,-12.4 6.78,-30.42 14.33,-41 m -1122.0002,108 c -4.26,14.41 -2.74,32.01 -4.17,47 -2.96,30.94 -5.57,62 -7.74,93 -1.02,14.59 1.6,38.91 -5.11,52 -6.65,12.96 -26.16,24.5 -36.98,34.17 l -92.0002,82 c -72.27,64.53 -143.74,130.15 -217,193.54 -39.21,33.93 -85.18,62.8 -121.56,99.72 -42.45,43.09 -78.08,96.33 -115.89,143.57 -61.68,77.07 -126.26,154.2 -182.98,235 -36.54,52.05 -68.82,107.53 -103.26,161 -61.29,95.15 -133.62,190.05 -177.31,295 -68.95,-70.41 -132.9,-146.74 -198.83,-220 -18.63,-20.7 -37.33,-41.33 -56,-62 -9.5,-10.52 -18.55,-23.81 -30.17,-32 -2.3,53.66 -12.88,108.63 -19.29,162 -1.75,14.66 -3.09,29.37 -4.99,44 -0.8,6.12 -3.62,16.02 -1.95,21.99 2.58,9.19 21.13,20.04 28.23,26.3 22.21,19.55 43.3,40.51 63.96,61.7 48.78,50.01 92.34,105.8 132.32,163.01 13.3,19.04 26.22,38.39 38.67,58 6.03,9.51 11.34,22.78 20.05,30 74.77,-134.81 161.5,-265.09 221,-408 4.48,10.61 3.08,24.62 4.17,36 2.51,26.3 3.12,52.67 4.92,79 6.64,96.94 4.27,194.89 1.9,292 -0.59,23.9 -1.45,48.13 -3.08,72 -0.73,10.67 -4.64,26.53 -1.59,36.85 1.18,4.01 7.3,4.13 10.68,5.18 9.98,3.08 19.18,7.41 28,13.02 23.74,15.12 42.48,39.56 56,63.95 l -112,-4 c 2.85,19.02 14.41,39.16 21.55,57 17.17,42.92 33.74,86.08 50.9,129 8.15,20.38 21.46,43.38 25.22,65 3.12,17.91 1.57,37.82 2.37,56 1.53,35 3.47,69.99 5,105 4.08,93.34 9.84,186.67 13.92,280 1.52,34.67 2.58,69.38 4.95,104 0.86,12.53 -1.1,26.8 1.94,39 3.58,14.41 19.75,30.15 28.52,42 16.62,22.46 32.8,45.27 49.05,68 7.56,10.58 15.07,25.26 25.58,33 3.03,-22.5 11.12,-44.98 16.63,-67 2.79,-11.16 3.99,-25.89 9.51,-36 4.01,-7.35 12.12,-12.84 17.69,-19 13.75,-15.2 28.94,-35.96 46.17,-47.19 25.89,-16.86 60.79,-19.68 86,-37.6 50.15,-35.66 90.38,-81.83 143,-114.79 19.78,-12.38 38.73,-26.53 59,-38.08 18.46,-10.53 37.42,-20.17 56,-30.48 7.12,-3.95 16.95,-7.24 22.61,-13.19 6.05,-6.37 8.76,-16.9 12.64,-24.67 2.81,-5.64 8.07,-12.7 8.9,-19 1.19,-9.07 -10.88,-24.94 -14.9,-33 -13.59,-27.18 -29.26,-54.67 -40.25,-83 -20.37,9.5 -39.76,35.43 -56,50.96 -12.48,11.93 -27.46,22.82 -38.47,36.13 -22.88,27.65 -38.92,65.83 -56.95,96.91 -15.69,27.03 -34.36,53.69 -47.58,82 -10.31,-5.87 -19.64,-14.29 -29,-21.58 -2.87,-2.22 -9.32,-5.36 -10.33,-9.09 -2.12,-7.76 14.77,-29.22 18.55,-36.33 18.88,-35.55 38.4,-70.8 57.92,-106 10.62,-19.16 20.85,-38.62 31.08,-58 4.86,-9.21 9.31,-21.41 16.88,-28.71 19.58,-18.88 44.35,-34.03 65.9,-50.64 7.33,-5.65 21.27,-12.55 25.73,-20.73 2.03,-3.74 0.27,-10.75 0.27,-14.92 v -37 c 0,-41.91 1.63,-85.21 -1.71,-127 -0.85,-10.74 3.67,-28.93 -0.89,-38.61 -2.11,-4.48 -11.18,-6.39 -15.4,-8.25 -14.28,-6.31 -28.65,-12.42 -43,-18.56 -24.01,-10.27 -48.03,-20.52 -72,-30.86 -8.28,-3.57 -21.93,-12.84 -31,-12.16 -15.61,1.18 -35.76,15.61 -50,22.13 -8.29,3.8 -33.5,10.31 -37.4,18.7 -4.42,9.52 1.59,32.06 2.31,42.61 2.47,36.06 6.31,72.85 6.19,109 -0.04,11.71 -7.91,25.03 -11.76,36 -9.15,26.12 -17.38,53.95 -29.12,79 -5.4,11.52 -16.23,26.31 -17.66,39 -1.58,14.01 6.07,33.16 8.84,47 5.91,29.56 10.57,59.17 14.87,89 1.78,12.33 6.16,26.56 5.46,39 -1.01,17.8 -18.56,43 -26.48,59 -5.72,11.54 -10.82,33.51 -21.35,41.3 -12.05,8.9 -34.52,12.62 -48.9,16.7 11.06,-38.98 28.09,-77.37 36.48,-117 3.16,-14.9 1.57,-31.8 2.61,-47 1.44,-21.05 4.48,-42.91 3.89,-64 -0.52,-18.75 -14.75,-41.51 -21.4,-59 -2.14,-5.61 -7.59,-13.9 -6.73,-20 2.09,-15.01 16.11,-33.42 22.9,-47 16.06,-32.12 33.77,-66.94 45.15,-101 4.91,-14.71 -0.76,-36.71 -1.81,-52 -1.85,-26.94 -3.87,-54.03 -5.05,-81 -0.62,-14.07 0.94,-31.52 -3.04,-45 49.1,-20.14 98.53,-46.09 138.96,-81.33 18.41,-16.04 33.93,-37.44 50.21,-55.67 15.8,-17.7 38.9,-36.29 50.42,-57 23.71,-42.64 28.98,-97.02 55.38,-138 18.38,-28.53 48.83,-52.51 71.32,-78 7.75,-8.8 20.34,-17.8 24.48,-29 23.9,-64.78 37.31,-135.44 55.81,-202 6.79,-24.43 9.92,-58.05 22.51,-80 6.48,-11.31 19.03,-20.38 27.7402,-30 24.69,-27.28 51,-53.08 76.08,-80 74.13,-79.57 148.19,-160.1 225.09,-237 -21.96,38.55 -52.77,73.9 -78.58,110 -53.46,74.78 -107.38,149.22 -160.84,224 -20.89,29.22 -45.82,57.81 -63.58,89 26.81,-11.95 52.18,-41.84 75,-60.39 45.51,-37 90.89,-74.2 136,-111.69 24.22,-20.13 48.3,-44.24 75,-60.92 -26.31,56.26 -47.32,115.57 -71.01,173 -44.25,107.25 -88.81,214.41 -132.19,322 -18.45,45.76 -37.13,91.5 -56.22,137 -6.91,16.47 -24.31,43.19 -24.16,61 0.11,13.15 15.41,34.15 21.33,46 18.14,36.28 35.87,72.73 54,109 41.06,82.1 82.01,164.36 121.99,247 22.5,46.5 43.21,95.37 69.26,140 -35.46,-28.59 -65.58,-70.19 -96.17,-104 -65.93,-72.87 -132.82,-145.03 -199.7402,-217 -19.42,-20.88 -38.79,-41.85 -57.92,-63 -9.45,-10.44 -18.84,-23.66 -30.17,-32 -15.6,26.73 -37.28,60.28 -45.82,90 -7.96,27.71 -1.18,66.22 -1.18,95 v 109 c 0,16.31 -3.05,36.07 0.39,52 4.68,21.66 20.32,43.68 29.19,64 11.75,26.93 24.85,53.3 37.11,80 2.8,6.1 7.65,24.65 14.52,26.68 13.01,3.85 32.19,0.32 45.79,0.32 h 69.0002 c 10.13,0 23.17,2.2 32.99,-0.32 14.04,-3.61 16.37,-28.88 30.05,-33.45 11.29,-3.78 26.13,-2.5 37.96,-3.32 25.02,-1.72 49.98,-4.25 75,-6 14.5,-1.02 33.79,-6.42 48,-3.52 16.03,3.28 34.77,17.53 49,25.61 11.75,6.67 34.31,13.28 42.4,24.21 8.85,11.97 4.87,42.1 7.6,56.79 -30.08,-12.52 -58.7,-35.48 -90,-44.36 -14.19,-4.03 -35.34,0.27 -50,1.27 -28.87,1.98 -56.55,0.35 -85,6.67 -8.34,1.85 -32.66,3.34 -38.01,9.98 -3.15,3.91 -2.57,12.63 -3.15,17.44 -1.61,13.52 -4.56,27.4 -4.84,41 -38,-0.32 -77.15,-6.51 -115.0002,-10.17 -14.13,-1.37 -33.08,-6.56 -47,-3.44 -30.7,6.9 -58.78,35.21 -88,47.16 -25.78,10.53 -54.27,17.2 -81,25.03 -10.33,3.02 -27.32,5.12 -35.71,11.93 -36.88,29.92 -56.86,80.91 -94.58,109.79 -28.16,21.56 -72.41,20.87 -100.62,42.35 -8.53,6.5 -14.44,20.35 -20.14,29.35 -20.06,31.62 -30.56,64.15 -43.76,99 -4.52,11.93 -8.48,24.07 -13,36 -1.47,3.89 -2.47,10.58 -7.24,11.64 -14.94,3.34 -38.69,-3.48 -53.95,-5.36 -5.55,-0.68 -13.14,-0.02 -18,-3.02 -20.32,-12.56 -37.75,-35.73 -55,-52.22 -13.73,-13.13 -34.23,-26.72 -44.15,-43.04 -4.79,-7.9 -5.74,-20.07 -7.98,-29 -14.62,-58.5 -21.16,-116.57 -20.87,-177 0.16,-31.99 5.36,-63.93 3.96,-96 -4.94,-112.94 -20.79,-227.85 -34.96,-340 -43.07,1.85 -80.73,13.4 -121,-10.6 -14.21,-8.48 -23.21,-21.62 -36,-31.4 -20.68,39.25 -31.96,83.53 -53.31,123 -40.87,75.56 -95.93,137.99 -157.69,197.04 -20.91,19.99 -41.47,45.26 -65,61.96 35.83,-110.1 73.26,-219.55 101.37,-332 7.49,-29.93 15.17,-59.82 21.63,-90 2.15,-10.04 8.93,-25.88 7,-36 -1.24,-6.47 -8,-13.68 -11.72,-19 -10.48,-15 -21.99,-29.2 -34,-43 -41.35,-47.53 -93.86,-84.08 -148.28,-115.15 -17.21,-9.83 -35.98,-25.26 -55,-30.85 15.67,36.38 40.63,69.11 55.07,106 9,22.97 10,51.76 14.54,76 6.31,33.65 18.22,70.81 19.13,105 0.62,23.21 -9.19,50.11 -13.32,73 -10.97,60.82 -26.69,125.88 -25.07,188 0.43,16.28 12.48,36.67 17.96,52 13.31,37.27 23.8,78.5 41.24,114 8.89,18.08 29.14,34.95 42.5,50 4.19,4.72 9.57,14.04 15.96,15.68 25.93,6.67 57.77,-8.97 82.99,0.05 14.72,5.26 29.82,22.72 42,32.47 27.98,22.39 52.72,44.54 77.09,70.8 9.59,10.34 23.92,21.52 30.47,34 6.31,12.03 7.03,28.86 10.31,42 9.97,39.94 15.76,81.68 27.9,121 4.08,13.21 12.81,25.66 18.98,38 18,35.99 39.92,71.68 54.9,109 6.03,15.03 -0.12,33.54 7.38,50 9.44,20.75 27.58,35.68 44.97,49.6 24.88,19.91 48.41,39.29 81,43.97 51.4,7.39 93.37,-20.26 131,-51.49 37.41,-31.04 75.22,-67.13 116,-93.53 77.72,-50.31 173.43,-57.86 263,-66.38 31.89,-3.04 64.18,3.92 96,1.74 74.04,-5.07 150.4702,-22.22 222.0002,-41.03 27.87,-7.32 57.99,-11.7 85,-21.69 17.05,-6.31 32.86,-17.6 49,-25.93 37.65,-19.44 74.94,-39.84 112,-60.4 30.92,-17.15 62.12,-33.78 93,-51 12.61,-7.03 28.9502,-12.86 39.8202,-22.39 13.42,-11.77 22.89,-32.69 32.85,-47.47 18.91,-28.06 43.83,-56.47 58.33,-87 -38.04,-22.2 -80.97,-38.93 -121.0002,-57.31 -26.25,-12.05 -53.27,-29.7 -81,-37.69 v -1 c 101.3902,0 196.7202,25.93 273.0002,94.83 20.96,18.93 44.97,41.62 57.75,67.17 31.21,62.4 25.69,146.1 30.34,214 2.86,41.73 6.91,83.6 13.33,125 3.6,23.17 11.68,46.77 13.58,70 h -1 l -27.4,-46 -70.6,-116 h -1 c -1.42,68.72 -5.22,139.61 -12.17,208 -2.51,24.75 -12.69,49.15 -13.79,74 -1.9,42.92 3.12,87.1 5,130 0.63,14.43 4.03,30.66 1.5,45 -4.82,27.24 -14.62,54.24 -21.66,81 -23.14,88.03 -52.42,175.89 -70.88,265 -28.23,136.33 -53.28,273.85 -97.3302,406 -12.46,37.37 -20.72,82.18 -38.94,117 -10.4,19.87 -32.23,37.73 -46.65,55 -32,38.34 -62.83,77.87 -96.25,115 -66.22,73.58 -151.57,161.32 -259.83,153.91 -53.7302,-3.68 -103.6902,-27.76 -147.0002,-58.62 -30.21,-21.53 -58.72,-55.75 -99,-54.83 -45.14,1.03 -80.2,37.74 -107.72,69.54 -11.61,13.42 -22.47,27.62 -32.86,42 -4.02,5.57 -10.75,12.1 -12.14,19 -4.09,20.22 0.2,44.53 0.71,65 1.85,75.74 15.88,157.26 53.59,224 12.4,21.96 28.67,55.27 50.42,69.27 7.54,4.86 19.37,5.57 28,7.61 18.68,4.43 37.37,8.9 56,13.49 34.49,8.52 73.58,23.92 109,26.02 18.17,1.08 38.79,-5.4 57,-7.22 39.7702,-3.98 83.1802,-4.32 121.9902,-14.31 12.14,-3.13 25.56,-29.25 33.43,-38.86 26.22,-31.99 54.98,-61.88 86.58,-88.58 51.49,-43.5 110.8,-71.96 169,-104.84 26.59,-15.03 50.46,-36.17 77,-50.46 6.66,-3.59 25.5402,2.98 34.0002,2.88 18.13,-0.22 35.84,-10.33 49,-22.17 32.64,-29.37 53.85,-72.04 73.25,-110.83 48.4,-96.81 72.32,-198.4 92.01,-304 28.17,-151.09 70.03,-301.04 111.16,-449 12.33,-44.31 32.38,-85.63 50.16,-128 23.27,-55.46 43.5,-114.82 71.54,-168 33.64,-63.81 75.99,-124.47 113.69,-186 27.56,-44.98 54.83,-90.16 82.61,-135 14,-22.58 33.21,-46.35 43.1,-71 10.28,-25.61 11.87,-57.93 17.28,-85 9.04,-45.2 22.67,-92.14 27.03,-138 1.42,-14.96 -3.07,-32.07 -4.66,-47 -3.57,-33.34 -7.66,-66.64 -11,-100 -2.68,-26.75 -0.62,-62.89 -10.16,-88 -20.66,-54.37 -64.67,-99.68 -85.54,-154 -6.87,-17.87 -7.5,-40.17 -10.89,-59 -7.81,-43.32 -15.35,-86.68 -23.16,-130 -5.83,-32.35 -2.89,-63.39 -1.46,-96 1.96,-44.67 3.12,-89.33 5.08,-134 0.93,-21.29 2.96,-42.68 2.96,-64 0,-7.16 2.68,-16.09 0.44,-23 -3.65,-11.22 -17.1,-22.83 -24.44,-32 -18.38,-22.97 -36.54,-46.1 -55,-69 l 85,10 v -190 c -6.58,5.64 -10.3,15.63 -14.81,23 -8.86,14.47 -18.39,28.43 -28.56,42 -27.35,36.47 -60.34,67.36 -95.63,96 0,-60.03 17.86,-115.58 29.55,-174 13.4,-66.99 20.43,-134.93 23.41,-203 3.16,-72.28 -3.56,-145.9 -16.38,-217 -4.24,-23.5 -9.39,-46.91 -15.46,-70 -2.57,-9.77 -9.15,-22.94 -8.61,-33 0.42,-7.77 6.02,-16.82 8.89,-24 7.08,-17.69 14.32,-35.31 21.4,-53 22.42,-56.06 40.84,-117.75 69.2,-171 14.31,59.43 17.31,124.35 25.28,185 16.4,124.73 34.93,249.2 50.72,374 h 1 c 10.74,-136.13 44.93,-269.41 31.83,-407 -4.3,-45.17 -11.49,-89.37 -24.25,-133 -5.5,-18.78 -16.3,-37.08 -20.46,-56 -10.6,-48.24 -14.35,-99.1 -21.39,-148 -7.3,-50.65 -17.7,-102 -21.73,-153 h -1 c -22.66,80.44 -40.57,162.35 -79.89,237 -14.29,27.13 -30.46,52.76 -50.54,76 -6.48,7.51 -25.88,19.33 -27.42,29.01 -5.85,36.71 -1.37,77.8 -2.16,114.99 -1.82,85.3 -2.18,170.65 -4,256 -5.04,236.34 -8.96,471.81 -34.16,707 -13.79,128.78 -37.43,260.49 -83.26,382 -12.37,32.8 -26.43,65.33 -43.43,96 -9.74,17.58 -25.09,35.41 -32.14,54 h -1 c -14.04,-177.8 -6.99,-357.05 -35.41,-534 -6.62,-41.23 -12.31,-84.85 -30.37,-123 -8.57,-18.1 -24.15,-35.98 -45.22,-24 0.8,-38.96 10.94,-79.12 14.83,-118 9.16,-91.62 14.78,-185.13 6,-277 -4.76,-49.82 -11.94,-100.33 -27.83,-148 -6.16,-18.47 -13.28,-36.14 -21,-54 -2.62,-6.06 -9.65,-14.42 -9.73,-21 -0.12,-10.16 9.77,-24.53 13.53,-34 9.57,-24.18 17.81,-48.95 24.78,-74 19.64,-70.68 29.22,-147.77 22.25,-221 -12.53,-131.68 -59.19,-253.54 -129.88,-365 -28.97,-45.67 -67.0402,-85.58 -95.6202,-131 -9.78,-15.54 -15.35,-34.54 -23.58,-51 -17.05,-34.13 -36.12,-67.38 -57.5,-99 -58.09,-85.92 -133.48,-156.04 -213.25,-221.42 -28.11,-23.05 -55.69,-49.54 -86,-69.58 m 1318.0002,42 c -19.67,25.6 -22,56.88 -22,88 0,54.8 11.67,109.08 7.91,164 -2.53,36.91 -14.34,73.02 -22.33,109 -2.72,12.22 -9.33,27.48 -8.39,40 3.08,41.08 15.61,83.48 23.2,124 15.77,84.16 32.24,168.07 49.06,252 6.63,33.1 14.63,65.92 21.35,99 2.65,13.04 8.32,27.68 8.32,41 0.01,23.51 -8.86,49.9 -13.32,73 -6.07,31.51 -8.88,65.24 -18.01,96 -6.5,21.89 -18.4,43.01 -27.36,64 -5.66,13.26 -14.63,27.87 -17.55,42 -3.76,18.13 0.43,41.06 0.43,59.66 0,42.27 -1.31,84.61 -8.56,126.34 -4.34,24.99 -13.44,68.59 -42.75,75.32 -10.21,2.34 -18.32,-2.65 -28,-4.32 -7.43,30.83 -10.65,63.62 -15.27,95 -2.73,18.48 -8.7,38.32 -8.7,57 0,32.37 1.28,65.55 3.06,97.91 0.86,15.47 4.07,33.78 1.76,49.09 -1.21,8.02 -11.08,15.98 -16.1,22 -14.32,17.19 -30.43,33.75 -43.37,52 -5.45,7.69 -6.89,19.11 -9.72,28 -6.57,20.57 -14.81,41.84 -19.15,63 -5.52,26.99 0.49,59.47 0.49,87 0,41.11 -5.79,84.03 -1.83,125 5.48,56.61 21.39,113.19 23.83,170 h 1 c 5.7,-16.84 4.88,-44.9 18,-58 0.13,16.12 5.59,31.91 5.99,48 0.77,31.55 -4.17,64.59 -7.16,96 -2.19,22.98 -4.31,45.97 -5.92,69 -0.68,9.75 -3.86,21.31 -2.43,31 2.12,14.38 14.93,30.92 21.26,44 13.6,28.11 27.54,56.06 41.51,84 6.82,13.64 16.95,28.33 21.11,43 2.57,9.04 -0.08,19.69 0.81,29 2.99,31.38 2.07,63.47 2.84,95 2.14,87.32 12.95,175.88 -7.53,262 -6.01,25.25 -20.46,51.11 -30.63,75 -25.12,58.98 -53.64,116.57 -84.16,173 -13.38,24.75 -30.64,51.43 -39.88,78 -4.24,12.23 -3,29.1 -3.9,42 -1.68,24.02 -4.34,47.97 -6,72 -3.25,47.21 -17.67,100.02 9.32,143 15.5,24.69 39.51,27.69 65.77,32.61 37.35,7 74.71,14.05 112,21.39 51.95,10.22 104.02,19.78 156,29.8 15,2.9 29.97,5.91 45,8.62 5.9,1.07 14.04,4.45 20,3.22 7.89,-1.63 17.11,-15.48 22.25,-21.35 15.82,-18.04 33.14,-34.8 49.26,-52.58 45.93,-50.62 93.29,-100.31 140.53,-149.71 15.17,-15.87 30.09,-31.94 45.05,-48 6.82,-7.32 17.16,-14.89 21.59,-24 5.45,-11.2 3.79,-32.53 4.36,-45 1.26,-27.68 5.11,-55.35 7.05,-83 2.09,-29.8 8.87,-61.17 7.78,-91 -0.43,-11.71 -6.28,-24.57 -8.99,-36 -5.22,-22.03 -9.57,-44.56 -12.6,-67 -10.74,-79.77 -9.27,-159.51 2.99,-239 7.37,-47.71 20.48,-96.46 39.15,-141 12.48,-29.75 35.34,-65.11 28.19,-99 -3.05,-14.44 -11.94,-29.44 -17.76,-43 -10.99,-25.61 -21.56,-51.4 -32.57,-77 -19.74,-45.88 -41.84,-91.95 -58.58,-139 -6.37,-17.88 -8.91,-37.1 -15.38,-54.95 -3.01,-8.28 -14.34,-3.93 -20.02,-8.65 -6.17,-5.13 -8.67,-25.63 -9.3,-33.4 l 18,4 c -0.96,-20.88 -10.03,-43.53 -14.58,-64 -11.04,-49.72 -22.8,-99.28 -33.84,-149 -4.17,-18.77 -12.61,-39.8 -13.32,-59 -0.47,-12.69 4.79,-27.51 7.13,-40 5.31,-28.32 10.19,-56.74 15.81,-85 2.93,-14.74 8.66,-31.97 8.34,-47 -1.24,-59 -11.5,-119.27 -17.37,-178 -7.31,-73.07 -10.84,-147.35 -21.6,-220 -7.31,-49.37 -22.6,-98.34 -27.4,-148 -6.78,-70.06 5.54,-141.94 0.74,-212 -4.81,-70.31 -16.01,-141.04 -24.63,-211 -5.51,-44.74 -6.53,-91.93 -15.95,-136 -6.13,-28.69 -17.6,-56.99 -26.3,-85 l -50,-161 -103,-331 c -10.26,-32.99 -20.18,-66.09 -30.69,-99 -4.1,-12.86 -6.29,-32.2 -14.34,-43 m -1024.0002,121 1,1 -1,-1 m 1,2 c 9.68,22.47 24.4,43.77 36.57,65 22.69,39.57 44.97,79.38 67.58,119 42.0002,73.58 84.1002,147.08 123.6302,222 15.44,29.26 33.51,58.51 46.34,89 22.12,52.56 38.9,112.02 54.13,167 14.79,53.37 18.95,113.18 27.02,168 4.08,27.66 15.09,60.13 13.52,88 -0.96,17.14 -7.01,35.22 -10.58,52 -7.22,33.97 -14.17,67.99 -21.21,102 -2.94,14.18 -8.31,29.52 -8.9,44 -1.2,29.69 28.53,58.07 28.9,88 1.93,157.64 -13,315.33 -13,473 h 1 c 0.12,-42.91 9.26,-87.32 13.83,-130 9.17,-85.66 19.84,-171.24 28,-257 8.54,-89.72 3.1,-181.03 9.26,-271 3.12,-45.62 5.95,-91.31 7.95,-137 0.85,-19.33 4.85,-39.67 3.46,-59 -1.71,-23.94 -17.55,-52.16 -25.17,-75 -15.02,-45.06 -30.15,-90.11 -45.67,-135 -8.27,-23.9 -18.97,-48.38 -24.66,-73 40.04,21.09 79.04,45.12 117,69.69 16.93,10.96 35.78,29.19 55,35.31 -17.62,-26.64 -40.15,-50.97 -60,-76 -47.47,-59.87 -96.17,-118.3 -146.28,-176 -34.29,-39.48 -70.82,-78.66 -101.56,-121 -42.9902,-59.22 -80.8902,-123.97 -119.7402,-186 -11.14,-17.79 -22.86,-35.21 -34,-53 -6.64,-10.61 -13.18,-24.53 -22.42,-33 m -2374.0002,877 c 7.922,-12.97 9.139,-35.13 12.424,-50 8.156,-36.93 14.466,-75.96 25.906,-112 4.82,-15.19 17.48,-30.34 25.67,-44 19.75,-32.92 40.82,-65.38 59.33,-99 16.31,-29.6 30.31,-60.77 45.42,-91 6.27,-12.54 10.96,-27.93 19.64,-39 20.28,-25.87 48.5,-45.3 68.94,-71 13.89,-17.46 26.55,-36.04 39.79,-54 5.16,-7 10.17,-17.01 17.18,-22.27 8.22,-6.18 23.84,-8.03 33.7,-10.87 27.34,-7.87 62.86,-13.06 87.79,-26.66 7.92,-4.33 12.83,-21.48 17.21,-29.2 15.89,-28 39.1,-61.11 48,-92 -40.47,-26.78 -81.2,-50.11 -125,-70.78 -16.04,-7.57 -34.69,-20.09 -52,-23.83 -23.43,-5.07 -54,2.01 -78,2.6 -24.49,0.6 -46.16,2.42 -70,8.38 -7.11,1.78 -17.41,2.47 -23.68,6.28 -3.89,2.36 -3.29,11.36 -3.32,15.35 -0.09,13.37 -0.87,27.55 -2.46,40.83 -5.41,45.13 -26.85,95.84 -43.99,138.17 -32.23,79.55 -78,154.9 -113.859,233 -8.888,19.36 -17.693,38.82 -26.949,58 -4.638,9.61 -12.498,21.47 -14.312,32 -3.829,22.21 5.152,52.5 7.401,75 5.253,52.53 15.717,101.58 27.518,153 5.469,23.83 9.025,50.13 17.651,73 m 228,-395 c 24.84,13.09 38.7,37.79 54.42,60 28.06,39.63 55.95,79.37 84,119 104.68,147.88 208.09,296.7 313.58,444 h 1 c 0,-30.78 -0.26,-65.71 -5.61,-96 -3.08,-17.37 -13.97,-37.44 -13.41,-55 0.45,-13.81 9.05,-29.72 12.88,-43 1.27,-4.43 5.16,-11.39 3.09,-15.91 -3.43,-7.48 -13.21,-14.35 -18.95,-20.09 -16.02,-16.02 -36.07,-31.65 -49.37,-50 -15.51,-21.42 -27.74,-46.25 -41.23,-69 -42.99,-72.49 -77.98,-146.77 -86.23,-232 -7.56,-78.06 10.64,-155.49 44.15,-226 13.19,-27.75 37.16,-54.48 45.68,-84 -7.62,-4.01 -27.37,-20.85 -35.79,-19.12 -6.29,1.29 -12.63,21.64 -15.07,27.12 -9.16,20.55 -19.34,40.86 -29.39,61 -3.05,6.12 -5.84,18.32 -11.96,21.97 -15.1,9 -40.14,1.4 -56.79,8.04 -23.88,9.54 -47.56,20.12 -71,30.68 -10.24,4.62 -22.67,7.8 -31.96,14.12 -11.39,7.76 -20.33,22.8 -29.32,33.19 -24.53,28.35 -48.13,55.97 -62.72,91 m 2141.0002,679 h -1 c 13.13,-67.7 27.12,-134.91 38.25,-203 11.07,-67.78 17.51,-138.61 9.8,-207 -3.2,-28.42 -12.78,-65.45 -41.05,-78.68 -25.27,-11.82 -56.05,2.23 -78,15.28 -55.23,32.86 -102.97,81.04 -145.83,128.4 -69.81,77.15 -130.6302,161.82 -193.0402,245 -60.03,80 -122.04,158.45 -177.13,242 -38.75,58.78 -77.19,117.81 -115.31,177 -12.26,19.04 -24.48,38.15 -37.02,57 -5.36,8.05 -10.2,18.83 -17.67,25 24.24,-62.49 53.41,-123.4 79.85,-185 l 22,-51 c 2.56,-5.97 9.02,-15.45 8.54,-22 -0.61,-8.56 -10.63,-19.73 -14.99,-27 -12.37,-20.63 -24.9,-41.2 -36.98,-62 -35.82,-61.73 -72.9,-122.8 -109.62,-184 -15.9,-26.51 -42.09,-57.4 -50.8,-87 26.31,17.99 49.79,42.01 74,62.73 48.95,41.9 98.05,83.64 147,125.54 23.18,19.84 46.15,44.56 72,60.73 9.87,-23.69 26,-45.89 38.99,-68 25.89,-44.07 52.11,-87.93 78,-132 82.07,-139.71 164.9702,-278.98 248.2102,-418 29.34,-49.01 54.99,-101.28 86.14,-149 14.62,-22.38 32.73,-45.79 59.66,-53.25 26.39,-7.32 52.97,7.32 73,23.25 43.21,34.39 75.01,83.54 103.81,130 30.2402,48.79 57.1402,98.69 66.7502,156 23.56,140.41 -54.4302,269.35 -126.5102,383 -20.28,31.98 -39.89,64.6 -61.05,96 m -2155.6102,-649.93 c -4.45,2.56 -7.37,11.52 -9.65,15.93 -6.58,12.71 -13.55,25.21 -19.99,38 -23.6,46.87 -48.65,92.98 -72,140 -17.23,34.71 -36.56,69.99 -50.82,106 -12.29,31.01 -19.99,64.98 -29.35,97 -6.84,23.36 -17.809,47.91 -21.28,72 -6.307,43.77 -1.189,89.88 -4.211,134 -0.622,9.09 1.45,19.08 -0.479,28 -2.26,10.45 -10.582,21.68 -15.749,31 -12.738,22.98 -28.905,47.39 -38.061,72 -4.32,11.61 -3.742,26.73 -4.969,39 -4.039,40.37 -1.699,76.65 1.08,117 1.369,19.89 -0.578,46.1 5.792,65 3.183,9.45 12.532,18.9 18.297,27 13.723,19.28 27.502,38.54 40.975,58 47.145,68.08 95.265,135.56 143.315,203 73.18,102.7 145.43,206.07 218.29,309 22.01,31.1 53.22,97.46 101.42,72.21 25.69,-13.45 43.3,-49.89 59.34,-73.21 36.51,-53.08 74.43,-105.22 111.38,-158 12.4,-17.71 24.88,-35.39 37.42,-53 5.14,-7.22 14.3,-16.33 16.44,-25 4.27,-17.27 -7.61,-35.75 -13.78,-51 -8.88,-21.93 -17.24,-46.57 -29.15,-67 -10.73,-18.41 -27.16,-35.32 -40.45,-52 -9.92,-12.45 -34.78,-34.14 -37.06,-50 -3.1,-21.6 -0.23,-44.23 -1.18,-66 -1.41,-32.15 -5,-66.91 -1.79,-99 2.59,-25.94 10.81,-52.54 16.41,-78 3.72,-16.97 5.54,-35.64 11.36,-52 15.29,-42.96 38.73,-82.59 53.06,-126 3.95,-11.96 15.58,-33.5 13.49,-46 -1.06,-6.31 -7.61,-12.88 -11.21,-18 -9.4,-13.36 -18.72,-26.83 -28.4,-40 -32.1,-43.71 -61.66,-89.29 -93.76,-133 -82.05,-111.68 -161.25,-226.07 -240.14,-340 -18.69,-26.99 -36.72,-55.66 -57.6,-81 -4.16,-5.05 -19.28,-20.36 -26.99,-15.93 m 2117.6102,196.93 -2,2 2,-2 m -165,389 c -38.93,38.12 -89.85,66.92 -135,97 -11.4102,7.6 -23.0802,14.93 -35.0002,21.72 -4.45,2.53 -12.83,5.02 -16.01,8.98 -4.71,5.85 -4.01,20.96 -5.24,28.3 -4.31,25.91 -11.21,53.74 -11.75,80 20.95,-12.1 39.97,-32.97 57,-50 38.2702,-38.27 72.9602,-80.28 104.8502,-124 10.59,-14.51 20.93,-29.21 31.12,-44 3.2,-4.64 10.53,-12.24 10.03,-18 m -1511.0002,235 c -11.73,60.49 -26,121.07 -26,183 0,28.79 2.7,61.68 19.72,86 3.63,5.19 10.52,15.66 17.28,16.72 7.43,1.17 22.78,-11.23 31,-13.34 20.91,-5.38 42.13,-3.57 63,1.04 108.34,23.94 197.08,99.52 312,94.58 v -1 c -78.22,-20.24 -129.95,-76.54 -179.2,-138 -65.97,-82.33 -136.73,-186.92 -237.8,-229 m 3721.0004,1319 c -13.54,6.31 -24.33,24.22 -36,33.92 -19.02,15.81 -39.52,24.64 -61,36.08 4.94,-39.07 11.35,-75.21 26.2,-112 2.9,-7.18 13.4,-35.31 23.7,-33.03 8.08,1.8 9.57,26.32 10.1,33.03 22.19,-10.35 13.99,-36.51 13.04,-56 -0.99,-20.27 -2.42,-47.5 -15.56,-64 -14,-17.58 -49.41,-21.78 -70.48,-19.94 -8.78,0.76 -13.73,13.03 -17.24,19.94 -10.9,21.43 -20.43,43.9 -27.18,67 -19.77,67.59 -24.29,154.55 33.25,205.33 12.38,10.93 27.16,23.14 44.17,25.37 15.53,2.03 29.28,-13.89 37.79,-24.7 21.82,-27.71 52.49,-74.56 39.21,-111 m -3476.0004,-168 c -6.35,34.19 -4.52,72.24 -6.04,107 -0.63,14.39 -5.48,32.94 -2.43,47 9.66,44.46 42.59,84.1 50.55,129 10.87,61.36 -0.35,126.96 12.43,188 6.26,29.85 15.37,59.56 23.34,89 4.59,16.96 7.09,35.84 14.03,52 9.87,23.01 34.25,44.61 39.73,69 6.19,27.6 4.53,59.74 6.48,88 3.81,55.36 9.03,110.64 12.82,166 3.52,51.39 -3.3,106.65 -6.82,158 -4.13,60.23 -0.6,122.12 -8.38,182 -7.5,57.76 -24.02,114.33 -32.28,172 -8.84,61.7 -10.59,124.94 -16.6,187 -4.93,50.88 -16.55,101.94 -18.79,153 -2.52,57.47 8.92,117.63 12.87,175 5.42,78.73 11.98,160.26 26.55,238 10.74,57.3 25.85,114.17 38.89,171 11.89,51.81 21.24,104.84 35.65,156 l 60,-25 c -1.13,-12.98 -7.01,-26.47 -10.58,-39 -7.89,-27.69 -16.1,-55.3 -24,-83 -22.35,-78.41 -45.48,-156.59 -67.84,-235 -10.18,-35.69 -23.63,-71.65 -31.07,-108 -3.22,-15.75 -0.19,-34.17 0.44,-50.09 0.91,-23.24 0.47,-46.7 1.04,-69.91 1.25,-51.34 -5.73,-107.29 2.16,-158 1.29,-8.31 12.91,-15.27 18.85,-20.42 14.75,-12.79 43.25,-30.15 51.97,-47.58 3.38,-6.75 2.51,-18.51 3.12,-26 1.5,-18.7 0.72,-43.3 6.88,-61 20.4,-58.69 60.68,-110.33 81.06,-169 5.52,-15.88 2.77,-39.25 2.97,-56 0.46,-38.4 -1.17,-82.21 5.46,-120 9.05,-51.56 29.02,-101.28 37.1,-153 4.94,-31.62 4.34,-65.06 6.53,-97 3.48,-50.78 8.65,-101.33 14.08,-152 3.99,-37.32 7.66,-74.73 12.12,-112 1.85,-15.52 8.39,-37.7 5.43,-53 -2.13,-10.98 -15.99,-23.19 -22.59,-32 -15.35,-20.45 -31.15,-40.56 -46.5,-61 -6.59,-8.76 -16,-17.95 -20.42,-28 -14.61,-33.25 -20.67,-73.05 -30.64,-108 -17.94,-62.93 -35.62,-125.95 -53.15,-189 -11.96,-43.05 -22.42,-86.79 -40,-128 -26.63,-62.42 -73.12,-131.25 -144.42,-146 m 3271.0004,381 -136,50.69 -61,22.31 c 1.23,13.98 9.47,32.61 16,45 l 122,-45.42 70,-25.58 46.12,196 38.88,165 46,-11 c -21.58,-76.59 -36.53,-155.57 -54.88,-233 -10.31,-43.48 -27.58,-90.49 -31.12,-135 25.19,-3.77 52.11,-18.64 76,-27.58 42.09,-15.74 85.96,-29.14 127,-47.42 l -16,-44 c -46.54,15.14 -92.15,33.96 -138,51.05 -19.24,7.17 -40.72,18.91 -61,21.95 -2.59,-31.73 -14.77,-65.01 -22.12,-96 -13.73,-57.96 -27.03,-116.04 -40.76,-174 -7.09,-29.9 -17.02,-60.56 -21.12,-91 l -34,7.12 -11.31,4.31 5.18,25.57 15.92,68 64.21,273 m -217,-139 c -0.02,-7.69 -7.61,-29.97 -0.57,-35.3 8.12,-6.14 26.97,16.46 31.48,21.3 24.92,26.76 51.89,63.32 62.09,99 -41.14,0 -76.37,-16.25 -112,-35 -4.66,12.31 4.45,29.86 12.08,39 18.92,22.67 42,44.68 67.92,59.14 12.72,7.09 28.07,11.9 41,2.82 11.7,-8.23 19.86,-20.82 26.99,-32.96 40.27,-68.6 5.83,-153.74 -37.86,-212 -13.34,-17.78 -28.06,-34.59 -44.13,-49.96 -5.41,-5.17 -13.72,-14.45 -22,-13.27 -8.25,1.19 -16.66,6.3 -24,9.98 -10.42,5.22 -21.74,11.48 -29.54,20.34 -17.72,20.13 -7.33,52.92 -1.59,75.91 5.62,22.47 7.41,41.54 30.13,51 m -1405,88 c 0,38.73 -4.48,77.64 -15,115 8.36,-1.49 30.17,-10.2 34.99,-17.39 3.89,-5.82 3.01,-18.81 3.01,-25.61 0.01,-24.84 -2.89,-54.43 -23,-72 m -118.0002,232 c 13.11,-17.34 18.19,-42.97 29.45,-62 6.58,-11.12 14.18,-21.04 23.55,-29.96 4.34,-4.13 11.68,-6.96 14.72,-12.14 9.7,-16.55 -0.19,-42.42 -7.5,-57.9 -7.6,-16.1 -17.57,-31.96 -29.94,-44.83 -2.98,-3.1 -9.9,-12.04 -14.96,-10.43 -3.38,1.07 -2.7,9.41 -3.03,12.26 -1.54,13.02 -2.13,26.89 -2.29,40 -0.68,55.02 -10,109.94 -10,165 m -193,-186 c -8.78,30.48 -32.07,52.19 -61,62 l 22.55,36 12.45,57 c 9.01,-7.47 12.32,-23.12 15.42,-34 7.77,-27.22 13.96,-54.87 17.29,-83 1.14,-9.6 5.4,-34.5 -6.71,-38 m 133,6 c -13.61,41.82 -23.03,83.96 -24.96,128 -2.09,47.8 4.93,95.34 5.95,143 0.41,19.13 -2.6,37.96 -2.99,57 h 1 c 31.97,-82.89 34.49,-159.69 28.09,-247 -1.37,-18.67 -3.15,-37.38 -4.92,-56 -0.76,-8.04 1.02,-17.42 -2.17,-25 m 2094.0002,185 c -13.17,7.72 -23.18,23.73 -35,33.73 -18.63,15.75 -39.16,25.93 -61,36.27 0.01,-38.66 11.48,-78.72 26.58,-114 2.63,-6.15 13.87,-34.62 23.21,-30.82 8.62,3.5 7.82,25.26 10.21,32.82 20.83,-12.04 14.23,-38.36 12.17,-59 -1.9,-18.94 -2.37,-41.63 -13.27,-58 -12.78,-19.18 -50.33,-25.3 -71.9,-22.89 -8.75,0.98 -12.99,11.05 -16.69,17.89 -10.3,19.04 -18.47,39.49 -25.31,60 -26.12,78.37 -28.93,190.79 57,234.03 47.4,23.86 79.26,-52.58 93,-87.03 5.23,-13.11 7.42,-29.67 1,-43 m -2180.0002,-150 c -20.02,73.36 -52.31,140.91 -63.57,217 -3.93,26.51 -4.21,53.32 -2.34,80 0.8,11.41 7.03,25.87 5.29,37 -1.51,9.69 -7.56,19.34 -10.01,29 -6.88,27.17 -11.37,55.95 -11.37,84 18.31,-10.57 34.75,-27.71 51,-41.25 6.05,-5.04 16.33,-10.64 19.97,-17.76 3.57,-7 -0.77,-20.3 -0.96,-27.99 -0.54,-22.3 0.63,-44.87 3.28,-67 7.56,-63.24 21.74,-125.61 27.88,-189 3.42,-35.31 3.42,-73.46 -17.17,-104 h -2 m 529.0002,34 -1,1 1,-1 m -271,378 c 29.75,-3.84 45.02,17.35 58,42 h 1 c 0.08,-27.29 12.01,-51.66 22.86,-76 3.32,-7.46 15.65,-23.79 13.43,-32 -1.78,-6.57 -10.84,-13.39 -14.86,-19 -9.21,-12.83 -16.91,-26.74 -23.65,-41 -28.98,-61.36 -47.23,-140.21 -31.78,-207 -39.11,6.73 -50.8302,49.65 -54.7102,83 -2.84,24.36 9.8402,55.59 13.4402,80 8.26,56.1 15.1,113.35 16.27,170 m -393.0002,-332 c -10.11,75.04 -49.45,143.84 -60.57,219 -4.11,27.72 -5.09,55.14 -2.26,83 1.49,14.64 7.45,29.43 7.82,44 0.8,32.15 -7.67,59.06 -12.99,90 24.63,-5.08 53.91,-9.07 77,-19 -28.85,-101.67 16.45,-197.88 21.04,-299 1.62,-35.7 2.78,-93.77 -30.04,-118 m 1901.0002,158 c -0.16,-7.79 -8.62,-28.7 -1.57,-34.36 7.7,-6.17 27.73,15.42 32.44,20.45 26.51,28.32 50.3,60.82 65.13,96.91 -24.63,0 -48.85,-3.7 -72,-12.43 -14,-5.28 -27.64,-14.98 -42,-18.57 -3.28,11.98 6.24,29.57 14,38 20.14,21.86 43.13,43.81 70,57.24 13.73,6.87 29.04,11.12 42,0.43 76.46,-63.05 32.07,-181.37 -19.75,-243.67 -14.63,-17.58 -29.71,-34.82 -47.25,-49.59 -6.52,-5.48 -13.69,-13.17 -23,-10.8 -22.48,5.72 -54.19,25.24 -58.54,49.39 -3.3,18.36 3.72,39.5 8.68,57 5.63,19.87 8.25,45.94 31.86,50 m -2167.0004,347 c 49.12,-20.45 94.38,-51.79 150.0002,-36 10.21,-42.4 12.84,-88.67 17.17,-132 7.28,-72.79 14.68,-148.1 4.41,-221 -3.72,-26.37 -9.33,-52.06 -21.33,-76 -3.27,-6.51 -9.03,-20.13 -15.5202,-23.78 -5.83,-3.27 -17.28,2.53 -22.73,4.79 -20.62,8.56 -44.35,21.51 -58.67,38.99 -8.03,9.8 -3.42,29.11 -2.48,41.04 2.32,29.2 0.39,59.77 -0.89,88.96 -4.68,106.91 -29.66,210.35 -49.96,315 m -37,-113 h 1 c 47.56,-101.69 36.36,-207.81 41,-316 -28.85,11.1 -42.01,52.72 -47.79,80 -16.63,78.56 -0.41,157.45 5.79,236 m -135,-301 c -8,34.9 -19.87,68.91 -27.58,104 -18.98,86.46 -29,182.63 -20.59,271 2.55,26.79 1.42,54.13 3.26,81 0.38,5.55 -1.14,23.25 4.23,26.3 9.76,5.53 28.21,2.99 38.68,1.09 52.99,-9.62 76.78,-64.06 86.79,-111.39 26.51,-125.37 -12.34,-267.59 -82.79,-372 h -2 m 757.0002,20 c -13.79,18.99 -25.44,40.04 -37.81,60 -4.83,7.8 -14.13,18.03 -16.13,27 -1.46,6.55 7.14,18.71 9.51,25 6.66,17.65 10.63,36.43 13.68,55 10.5,64.11 7.01,131.19 25.04,194 6.39,22.27 16.04,52.85 35.71,67 4.6,-107.06 7.63,-212.39 -7.73,-319 -3.77,-26.14 -8.15,-52.21 -13.85,-78 -2,-9.07 -2.49,-23.76 -8.42,-31 m -849.0002,169 h 1 c -0.55,-26.56 -0.27,-51.69 4.8,-78 3.5,-18.11 11.61,-36.77 13.2,-55 -20.49,0.94 -33.94,18.37 -38.35,37 -7.81,33.04 7.78,66 19.35,96 m 2243.0004,-126 -10,119 31.02,-33 11.16,-14 -7.93,-19 -24.25,-53 m -2269.0004,485 c 0,-107.64 26.32,-218.98 11.57,-326 -3.61,-26.25 -9.38,-51.47 -19.58,-76 -2.3,-5.52 -7.29,-21.37 -14.03,-22.27 -7.52,-1 -16.6,7.6 -21.96,11.87 -18.07,14.37 -35.07,31.05 -50.28,48.4 -5.28,6.02 -15.74,14.22 -15.24,23 4.8,85.01 20.04,174.21 53.1,253 12.11,28.87 30.11,69.46 56.42,88 m 2252.0004,-290 -22,-6 2,-18 c -9.82,4.97 -17.38,17.17 -25.01,25 -20.09,20.6 -39.47,41.95 -59.08,63 -40.85,43.85 -81.93,87.53 -123.09,131.09 -21.62,22.87 -47.74,45.15 -65.82,70.91 15.74,5.34 9.12,19.65 9,34 -24.02,-1.91 -44.99,35.16 -61,52 -33.17,34.88 -64.91,71.28 -97.17,107 -25.22,27.93 -50.04,52.12 -51.79,92 -1.66,37.9 16.26,67.03 34.1,99 14.83,26.58 29.17,53.42 44,80 70.64,126.63 140.82,253.62 210.09,381 20.73,38.12 41.86,76.05 62.91,114 11.19,20.18 23.84,41.12 48.86,44.7 25.68,3.67 41.2,-16.08 57,-32.7 35.41,-37.23 67.72,-77.62 104,-114 v 9 c 15.78,-11.21 28.89,-29.83 42.09,-44 25.56,-27.43 51.44,-54.57 77,-82 83.71,-89.87 166.07,-182.16 252.91,-269 v -1 c -2.56,-2.45 -8.81,-6.15 -8.98,-10.01 -0.26,-5.81 11.35,-14.98 15.07,-18.99 15.03,-16.22 29.95,-32.56 44.74,-49 41.86,-46.51 83.73,-93.11 126.26,-139 23.73,-25.61 52.54,-50.14 59.3,-86 9.74,-51.67 -18.57,-91.81 -42.53,-135 -26.39,-47.58 -52.21,-95.48 -78.72,-143 -15.7,-28.14 -34.39,-56.42 -47.14,-86 -13.73,2.45 -27.75,12.09 -41,16.95 -25.65,9.4 -52.76,15.1 -80,16.96 -132.34,9.06 -259.88,-86.97 -320,-199.91 -17.26,8.05 -32.21,33.1 -45.09,47 -5.31,5.73 -14.32,12.64 -17.17,20 -3.53,9.14 -1.47,20.45 -3.74,30 m -1439.0002,388 h 2 c 0.02,-25.17 4.19,-50.88 5.91,-76 3.02,-44.04 2.98,-88.89 1.05,-133 -3.99,-91.24 -23.31,-178.79 -34.96,-269 -13.85,5.25 -23.5,18.77 -30.8,31 -18.36,30.77 -29.7,72.27 -25.49,108 6.8,57.6 13.97,112.2 31.32,168 17.17,55.26 46.36,112.73 50.97,171 m -98,133 h 1 c 0,-38.47 0.6,-77.2 8.66,-115 6.51,-30.53 22.2,-59.17 19.17,-91 -4.65,-48.81 -27.75,-92.87 -42.49,-139 -14.64,-45.85 -20.34,-91.06 -20.34,-139 -28.73,12.14 -51.78,49.68 -63.86,77 -3.64,8.22 -9.23,17.89 -9.92,27 -1.28,16.95 8.82,39.2 12.18,56 7.76,38.81 13.49,77.74 18.32,117 2.81,22.88 4.62,46.02 6.19,69 0.72,10.52 -1.61,26.03 2.69,35.79 3.89,8.83 23.86,17.76 30.78,26.21 18.08,22.04 28.89,49.16 37.62,76 m 241.0002,-466 2,3 -2,-3 m 3,5 13,141 h 1 c 6.52,-34.59 14.27,-68.2 40,-94 v -1 l -54,-46 m 1544,435 c -5.37,-9.29 -0.91,-18.2 1.21,-28 4.07,-18.86 6.79,-37.81 8.62,-57 7.28,-76.47 -22.42,-194.8 -113.83,-206.71 -66.01,-8.6 -118.46,51.26 -149.81,101.71 -8.98,14.45 -17.26,29.18 -25.61,44 -2.22,3.94 -8.62,12.19 -7.16,16.91 2.18,7.08 20.12,16.04 26.58,19.09 4.55,-15.46 15.75,-31.41 24.32,-45 24.83,-39.39 62.4,-95.65 114.68,-97.96 49.62,-2.19 88.95,33.15 105.68,77.96 4.55,12.2 13.73,30.18 8.32,43 -6.36,-8.51 -8.59,-21.35 -13.26,-31 -14.11,-29.17 -33.39,-55.93 -64.74,-67.94 -59.24,-22.67 -106.39,37.64 -134.66,80.94 -6.74,10.34 -27.23,35.33 -26.1,47.96 0.64,7.12 20.2,15.96 25.76,19.71 15.38,10.37 30.56,21.04 46,31.33 4.39,2.93 14.92,7.42 16.07,13.04 1.53,7.51 -7.87,23.12 -11.07,29.96 -33.91,-12.85 -62.28,-44.34 -94,-62 -5.14,18.8 -15.89,36.65 -22.68,55 -1.8,4.85 -8.2,14.79 -6.11,19.91 2.42,5.92 13.66,10.65 18.79,14.09 17.08,11.44 33.9,23.26 51,34.67 5.23,3.49 18.33,9.22 20.29,15.51 2.25,7.22 -8.18,24.18 -11.29,30.82 -31.45,-14.88 -64.38,-40.77 -92,-62 -21.57,66.29 -41.53,140.55 -34.83,211 2.17,22.78 5.12,45.42 13.26,67 4,10.61 16.31,25.89 14.57,37 -18.76,-8.82 -28.23,-42.53 -32.87,-61 -15.35,-61.09 -7.19,-129.37 6.75,-190 3.95,-17.16 8.34,-34.14 13.4,-51 1.6,-5.33 6.94,-15.42 5.18,-20.91 -2.26,-7.02 -20.83,-16.58 -27.46,-19.09 -4.24,28.81 -16.84,57.21 -22.6,86 -18.84,94.17 -23.58,218.25 62.6,282.37 23.52,17.5 53.84,31.95 84,28.34 58.88,-7.04 98.93,-58.65 126.42,-106.71 6.47,-11.3 18.5,-48.66 36.54,-32.78 12.57,11.07 6.3,31.58 1.04,44.78 -14.02,35.18 -35.22,69.09 -62,96 -14.76,14.83 -30.02,28.49 -49,37.74 -60.78,29.62 -128.4,1.32 -178,-37.17 -97.37,-75.55 -134.2,-203.12 -122.83,-322.57 3.24,-34.07 8.93,-67.83 17.46,-101 2.29,-8.92 13.67,-31.41 10.16,-39.91 -2.84,-6.87 -16.78,-12.71 -22.79,-16.76 -20.81,-14.02 -41.07,-30.12 -63,-42.33 l 12,-32 34,21.97 53,36.03 c 8.58,-25.36 19.5,-51.86 33,-75 -22.92,-10.84 -43.9,-29.26 -65,-43.33 -5.52,-3.68 -20.38,-10.12 -22.21,-16.84 -2.02,-7.39 8.46,-23.73 11.21,-30.83 l 93,62 c 9.42,-29.56 40.5,-59.78 62,-81.01 20.08,-19.82 42.3,-37.35 67,-51.13 19.17,-10.69 39.67,-19.22 61,-24.49 114.76,-28.31 194.47,60.62 254.71,144.63 14.63,20.4 34.01,42.87 59.29,49.37 7.02,1.8 28.75,-1.97 27.76,9.63 -0.38,4.43 -6.65,8.02 -9.76,10.58 -10.09,8.27 -20.09,16.65 -30,25.15 -26.72,22.91 -52.12,47.39 -77,72.27 -11.47,11.47 -21.87,26.55 -35,36 m -2008.0002,-321 c 0,90.68 3.11,181.52 -3.09,272 -1.85,26.98 -3.94,54.12 -7.2,81 -1.73,14.28 -6.62,30.02 -2.43,44 9.44,31.51 19.92,63.26 38.06,91 7.05,10.77 16.21,24.19 28.66,29 0,-53.53 1.14,-104.71 14.88,-157 4.87,-18.51 11.79,-36.36 19.13,-54 3.1,-7.45 10.01,-15.89 10.69,-24 2.24,-26.64 -7.68,-58.32 -10.53,-85 -7.91,-73.86 -20.17,-149.7 -20.17,-224 -8.71,4.06 -15.58,12.54 -24,17.55 -13.92,8.28 -28.21,9.45 -44,9.45 m -82.0002,-7.57 c -29.98,4.08 -53,20.56 -74,41.57 -6.97,6.97 -17.1,15.82 -21.06,25 -3.65,8.46 0.35,22.99 0.97,32 1.46,21.32 1.9,42.73 3.92,64 0.73,7.66 -0.77,16.67 2.01,24 4.2,11.07 13.81,21.93 20.11,32 10.28,16.43 19.14,33.68 27.8,51 13.13,26.26 23.85,53.41 33.81,81 1.56,4.3 5.1,24.79 10.56,24.79 6.55,0 9.43,-15.06 10.73,-19.79 6.0202,-22.02 9.2802,-45.37 11.9902,-68 8.7,-72.41 14.16,-145.07 14.16,-218 0,-15.37 5.61,-51.35 -5.7,-63.49 -6.62,-7.1 -26.4502,-7.29 -35.3002,-6.08 m -157,86.57 -19.28,148 -36.72,281 h 1 c 13.6,-29.08 22.51,-61.39 32.03,-92 22.7,-73.07 40.97,-150.15 40.97,-227 0,-27.22 -2.3,-54.39 -8.35,-81 -2.06,-9.07 -3.72,-21.65 -9.65,-29 m 644.0002,3 c -51.63,67.67 -36.84,161.24 -21,238 h 1 c 5.97,-32.17 9.97,-62.38 25.26,-92 5.77,-11.19 12.76,-21.99 20.39,-32 3.4602,-4.52 10.3002,-10.08 10.9702,-16 0.9,-8.09 -7.27,-19.79 -10.48,-27 -7.0602,-15.85 -14.4202,-31.55 -20.0602,-48 -2.44,-7.1 -2.33,-16.73 -6.08,-23 m -781.0002,401 c 7.19,-3.74 8.58,-14.75 10.57,-22 5.75,-20.9 8.97,-42.64 12.51,-64 12.33,-74.42 24.08,-151.58 25.93,-227 0.49,-19.62 9.87,-57.26 -1.17,-74.78 -3.25,-5.13 -13.35,-6.57 -18.84,-7.79 -19.76,-4.42 -39.89,-1.99 -59,4.24 -5.35,1.74 -16.77,3.76 -19.97,8.72 -4.38,6.8 -1.03,24.6 -1.03,32.61 0,29.64 0.02,59.51 2.83,89 3.43,36.06 5.44,72.13 11.42,108 8.66,51.98 20.44,102.87 36.75,153 m 1296.6704,-276.33 -0.34,0.66 0.34,-0.66 m -0.67,2.33 v 3 h -1 l 1,-3 m 1255,2 c 1.43,3.68 5.76,10 4.58,13.96 -3.03,10.22 -25.52,22.27 -33.58,29.17 -29.26,25.06 -57.83,50.72 -86,76.96 -11.37,10.59 -22.87,28.32 -37,34.91 -1.95,-3.7 -7.05,-9.63 -6.17,-14 2.27,-11.38 24.86,-26.35 33.17,-34.09 27.94,-26.03 56.64,-50.88 86,-75.32 12.27,-10.22 24.81,-24.27 39,-31.59 m -470,12 c -9.9,16.97 -16.72,36.7 -23.81,55 -2.01,5.18 -7.87,14.31 -6.4,19.96 1.86,7.18 20.54,16.92 27.21,19.04 6.31,-18.67 14.44,-36.82 22.01,-55 1.95,-4.68 9.22,-14.73 7.57,-19.82 -2.19,-6.77 -20.48,-15.7 -26.58,-19.18 m -1404.0002,52 c -4.12,22.22 -4.34,45.52 -8.25,68 -9.12,52.48 -33.76,125.11 -4.75,175 14.97,-7.83 24.34,-30.18 30.72,-45 9.04,-21 20.19,-48.89 20.82,-72 0.63,-22.76 -7.61,-47.36 -13.83,-69 -4.09,-14.23 -8.61,-28.26 -14.11,-42 -2.28,-5.68 -4.23,-13.04 -10.6,-15 m -483.0002,11 c 3.6,28.77 0.5,64.17 -7.72,92 -5.62,19.02 -15.53,36.68 -20.04,56 -8.52,36.46 -5.09,75.18 -1.41,112 1.67,16.7 3.46,33.36 5.75,50 0.94,6.84 0.43,15.24 4.68,21 24.32,32.91 73.97,49.3 109.74,66 0,-33.97 -5.45,-68.22 -8.83,-102 -6.73,-67.28 -17.5,-134.9 -36.03,-200 -6.97,-24.5 -16.02,-48.46 -27.92,-71 -4.2,-7.96 -9.89,-19.94 -18.22,-24 m 323.0002,37 c -10.94,36.93 -9.61,80.76 -16.25,119 -5.09,29.27 -11.03,58.41 -19.18,87 -4.17,14.65 -12.83,30.11 -15.15,45 -2.17,13.86 3.41,30.82 3.58,45 0.36,30.35 -3.71,59.84 -5,90 30.34,-21.37 53.53,-48.59 87,-66.69 12.21,-6.6 25.09,-12.04 38,-17.11 4.46,-1.75 12.97,-2.93 15.98,-6.9 3.24,-4.28 2.76,-15.08 3.02,-20.3 0.76,-15.48 1.19,-30.57 1,-46 -0.74,-62.78 -36.12,-108.18 -64.69,-161 -11.72,-21.67 -16.78,-46.79 -28.31,-68 m -605.0002,104 c -7.12,36.7 -9.37,72.93 -3.41,110 1.14,7.09 2.74,30.82 9.71,34.26 14.73,7.25 47.69,-7.38 47.55,-25.26 -0.07,-8.9 -15.09,-23.91 -19.54,-32 -9.66,-17.53 -17.62,-36.01 -23.96,-55 -3.25,-9.76 -4.39,-23.65 -10.35,-32 m 441.0202,56.85 c -6.89,2 -6.3,11.49 -6.85,17.15 -1.76,18.2 -3.71,36.73 -4.16,55 -0.91,37.5 -2.66,75.53 -0.1,113 0.8,11.67 -2.18,28.05 2.65,38.91 2.45,5.5 10.37,8.76 15.44,11.33 14.24,7.22 37.85,15.11 53.96,10.19 13.08,-4 8.19,-39.28 7.21,-49.43 -4.88,-50.38 -17.15,-101.95 -35.97,-149 -5.24,-13.09 -10.59,-26.28 -18.56,-38 -2.75,-4.04 -7.85,-10.84 -13.62,-9.15 m 2239.9802,74.28 c -4.46,1.79 -6.3,6.95 -10.29,9.24 -3.36,1.92 -6.17,-2.33 -9.71,-0.62 -15.28,7.42 -30.24,31.91 -42.04,44.25 -36.02,37.67 -70.98,76.34 -107,114 -51.5,53.86 -102.26,108.47 -153.05,163 -15.59,16.74 -31.41,33.26 -47,50 -7.27,7.8 -17.68,15.7 -22.97,25 -4.52,7.95 0.44,17.83 -2.68,26 -2.48,6.49 -9.39,10.27 -11.78,17 -12.35,34.75 -18.4,73.2 -27.35,109 l -78.5,314 -50.1,201 c -9.63,38.51 -25.34,78.98 -18.11,119 10.57,58.47 70.79,76.11 117.58,100.26 112.84,58.24 224.42,119.19 338,175.99 29.15,14.58 58.33,29.55 87,45.06 18.76,10.15 36.42,20.59 58,12.07 32.26,-12.72 38.73,-50.8 46.13,-80.38 17.99,-71.97 34.94,-144.27 53.75,-216 61.06,-232.75 119.44,-466.88 175,-701 15.23,-64.15 32,-128.01 47.99,-192 8.16,-32.63 22.58,-68.91 17.7,-103 -7.72,-53.91 -44.3,-68.91 -87.57,-92.31 -58.46,-31.61 -119.11,-59.48 -177,-92.11 -23.19,-13.07 -47.35,-24.63 -71,-36.84 -5.67,-2.92 -18.45,-13.24 -25,-10.61 m -4226.0004,46.87 -5,415 c -57.601,2.47 -115.331,7.32 -173,8 -14.658,0.18 -29.30999,1.83 -43.99999,2 -3.282,0.04 -12.846,-0.38 -14.883,2.6 -4.447,6.51 0.879,27.48 0.883,35.4 0,3.21 -0.897,8.58 3.148,9.67 7.749,2.07 20.803,-0.73 28.852,-1.5 14.88199,-1.42 30.07399,-1.06 44.99999,-2.08 50.702,-3.47 102.58,-0.72 153,-7.09 l -5,414 h 47 c 0,-104.32 4,-208.66 4,-313 0,-25.7 1,-51.27 1,-77 0,-5.42 -2.71,-21.62 2.32,-24.97 11.02,-7.36 40.49,-2.22 53.68,-3.12 51.77,-3.54 108.05,1.55 159,-7.91 l -2,-46 -212,9 4,-306 1,-78 -1.03,-27.4 -11.97,-1.6 h -34 m 147,300 c 9.22,-39.85 33.21,-78.31 58.21,-110 4.94,-6.26 22.61,-30.94 32.68,-25.93 9.72,4.84 3.13,30.21 3.11,38.93 24.77,-7.13 23.59,-29.04 27.8,-51 4.99,-26.02 12.98,-63.5 -5.31,-85.96 -9.24,-11.35 -23.64,-18.03 -36.49,-24.3 -8.35,-4.07 -22.31,-13.03 -32,-11.08 -7.55,1.52 -13.86,10.2 -19,15.34 -15.54,15.55 -29.15,33.73 -41.33,52 -45.01,67.48 -73.43,163.03 -25,236 10.32,15.55 22.83,33.38 40.33,41.36 13.01,5.93 27.68,-0.73 39,-7.56 26.13,-15.78 47.32,-39.02 66,-62.8 5.58,-7.1 22.24,-34.92 13.05,-44.34 -3.71,-3.8 -23.89,10.98 -28.05,13.34 -29.64,16.83 -60.41,19.95 -93,26 m 3839.0004,-264 c 2.52,4.53 7.65,9.71 8.17,15 1.17,11.81 -12.77,30.7 -17.92,41 -20.23,40.46 -49.2,77.7 -86.25,104 -90.59,64.3 -202.82,22.36 -266.65,-60 -16.2,-20.9 -28.95,-43.32 -40.59,-67 -3.76,-7.64 -11.1,-19.41 -8.76,-28 12.54,15.19 19.57,37.41 31.03,54 24.05,34.84 56.77,64.71 92.97,86.55 17.62,10.63 36.9,19.19 57,23.8 109.19,25.02 197.15,-75.21 229,-169.35 h 2 m -4189.00039,157 c 2.362,-7.97 -0.994,-33.16 8.75799,-36.43 10.032,-3.36 23.703,25.8 27.381,32.43 19.869,35.84 40.002,84.4 40.861,126 -28.446,-9.27 -54.825,-25.06 -77.99999,-43.8 -10.33,-8.36 -22.326,-26.64 -35,-30.2 -8.039,43.3 27.28,92.95 55.91099,122.96 13.752,14.42 28.816,29.53 50.089,22.52 15.067,-4.96 28.002,-16.45 38.999,-27.48 60.421,-60.61 42.801,-160.34 13.604,-232 -9.708,-23.83 -21.063,-47.39 -35.099,-69 -5.256,-8.09 -10.701,-19.67 -21.504,-20.67 -22.622,-2.1 -63.30099,5.9 -75.64699,26.67 -10.816,18.19 -9.353,44.57 -9.353,65 0,22.35 -4.972,53.02 19,64 m 4340.00039,97 c 30.59,3.95 55.26,21.72 84,30 l 15,-86 27,7 c -0.18,21.2 -6.81,44.18 -10.8,65 -1.44,7.52 -6.34,20.43 -4.31,27.9 1.67,6.16 15.05,11.41 20.11,14.77 19.55,12.97 39.95,29.96 63,36.17 11.02,2.97 23.05,1.7 34,-0.97 7.55,-1.84 14.32,-6.38 21,-0.87 v 1 c -48.47,49.49 -74.3,117.77 -112,175 h -1 c -5.68,-23.85 -3.17,-50.57 -6.29,-75 -3.74,-29.32 -15.24,-56.57 -31.71,-81 -6.48,26.31 9.88,42.39 18,67 1.86,5.65 8.8,21.41 1,24 l -26,-48 h -1 c -6.4,49.57 -18.14,98.7 -26.41,148 -2.6,15.46 -13.16,41.77 -9.56,56.96 1.16,4.88 8.19,7.79 11.97,10.39 10.04,6.9 19.95,14.66 29,22.82 26.71,24.08 49.02,51.33 64.74,83.83 52.85,109.22 13.93,271.18 -100.74,323.69 -28.66,13.12 -56.37,13.31 -87,13.31 l -6,32 c 134.69,25 234.68,-114.49 239.96,-235 1.32,-30.25 -1.14,-60.67 -8.84,-90 -4.19,-15.93 -15.29,-33.79 -16.12,-50 h 1 c 72.25,109.19 35.84,280.16 -69,355.42 -39.3,28.21 -100.1,51.44 -149,36.58 l -7,37 c -5.43,-0.8 -25.21,-4.19 -26.64,-10.14 -1.9,-7.86 9.47,-27.35 2.32,-32.93 -7.64,-5.96 -22.54,-7.87 -31.68,-11.35 -16.81,-6.4 -32.19,-15.17 -48,-23.58 l -8,44 c -4.17,-0.34 -8.01,-1.42 -12,-2.66 -3.75,-1.17 -11.46,-1.8 -13.97,-5.07 -9.26,-12.04 15.15,-41.51 6.28,-53.74 -6.64,-9.16 -23.87,-15.91 -33.31,-22.2 -36.33,-24.22 -75.32,-45.55 -120,-36.33 -0.84,-4.5 -3.98,-15.52 -0.97,-19.4 6.73,-8.69 36.12,-2.6 44.97,-0.47 41.37,9.96 79.27,38.45 114,61.87 1.02,-7.93 6.71,-21.31 4.31,-28.96 -3.28,-10.44 -31.15,-22.73 -40.31,-28.46 -25.03,-15.67 -52.51,-38.36 -83,-41.41 -18.04,-1.8 -32.87,3.87 -50,7.83 -4.04,-15.63 15.2,-31.1 24.13,-43 25.62,-34.16 47.82,-69.91 68.87,-107 6.41,-11.3 11.9,-23.2 17.31,-35 1.72,-3.76 4.1,-11.87 9.55,-8.09 4.85,3.38 3.14,11.98 3.14,17.09 0,16.34 -0.74,32.71 1.42,49 6.06,45.58 22,103.7 59.58,134 3.16,-24.48 -13.86,-42.59 -21.67,-66 -10.28,-30.85 -12.33,-62.74 -12.33,-95 h 13 c 0,29.05 2.41,57.93 10.42,86 4.03,14.12 11.56,27.05 15.58,41 h 1 l 39,-217 c -11.6,-4.88 -22.21,-15 -32,-22.8 -30.56,-24.35 -56.66,-54.07 -57,-95.2 14.44,10.63 17.62,28.99 27.75,43 15.86,21.95 40.59,42.82 64.25,56 1.69,-6.55 6.5,-20.35 4.31,-26.82 -3.21,-9.44 -25.75,-20.26 -33.31,-27.27 -21.36,-19.79 -40.45,-42.24 -52.69,-68.91 -56.73,-123.57 7.8,-315.98 160.69,-316 l 15,-85 c 5.84,0.27 22.27,2.84 25.97,7.73 3.19,4.21 -1.41,16.45 -2.22,21.27 -3.34,20.02 -6.99,40.05 -10.75,60 m -9,50 -6,33 c 20.25,0 38.42,2.78 57,11.31 9.67,4.44 18.2,11.98 28,15.69 0.56,-7.06 5.99,-19.44 2.93,-25.99 -3.06,-6.54 -12.97,-11.81 -18.93,-15.41 -19.08,-11.53 -40.6,-18.6 -63,-18.6 m -67,217 c 0.26,-6.09 3.27,-13.01 2.41,-19 -1.31,-9.11 -8.67,-18.89 -11.37,-28 -6.01,-20.26 -6.01,-41.53 -1.16,-62 3.83,-16.14 9.95,-32.03 20.58,-45 5.44,-6.63 15.41,-11.82 19.53,-19.09 5.34,-9.44 6.79,-29.13 7.01,-39.91 -69.53,10.41 -87.76,107.19 -69.33,162 5.28,15.71 16.51,43.56 32.33,51 m 32,16 -6,-4 -0.97,13.71 20.97,16.57 57,36.72 c 15.03,-47.54 18.56,-101.88 27.42,-151 3.27,-18.09 14.46,-47.02 11.17,-65 -1.09,-5.96 -9.95,-10.57 -14.59,-13.64 -14.65,-9.72 -30.79,-14.5 -48,-16.78 -5.11,-0.68 -16.12,-1.38 -20.26,2.36 -7.64,6.89 -7.46,35.93 -9.35,46.06 -7.25,38.75 -15.9,77.91 -20.96,117 -0.89,6.88 4.69,11.27 3.57,18 m 210,9 c -22.4,-6.22 3.49,-34.5 10.4,-46 26.61,-44.33 57.46,-86.02 84.6,-130 21.69,10.11 -4.46,32.65 -12.97,45 -29.15,42.29 -55.47,87.04 -82.03,131 m -218,-171 c -24.27,29.91 -29.65,66.56 -18,103 h 1 c 6.24,-24.1 9.01,-49.5 13.42,-74 1.44,-7.95 6.69,-21.37 3.58,-29 m -3827.0004,297 c -12.78,2.92 -24.05,13.71 -36,19.14 -27.15,12.32 -56.08,20.57 -86,21.86 17.47,-39.41 32.02,-75.43 58.88,-110 4.89,-6.28 22.91,-31.26 32.9,-25.93 8.89,4.75 3.22,30.62 3.22,38.93 25.55,-7.36 24.59,-34.22 28.41,-57 3.58,-21.31 8.37,-46.09 0.89,-67 -8.37,-23.42 -46.53,-43.83 -70.3,-47.67 -10.36,-1.68 -18.06,8.04 -24.44,14.84 -16.53,17.63 -31.16,36.72 -44.56,56.83 -51.19,76.82 -75.76,200.66 8,265.98 18.35,14.32 37.38,7.71 55,-4.57 29.15,-20.32 83.84,-64.08 74,-105.41 m -466.99999,-47 c 1.894,-7.96 -2.151,-33.93 7.214,-37.6 10.12699,-3.96 24.60999,24.93 28.58499,31.6 22.818,38.26 36.761,81.48 45.201,125 -28.26,-6.54 -56.431,-23.48 -78.99999,-41.21 -11.401,-8.96 -22.766,-24.19 -36,-29.79 -10.18,42.76 30.229,89.43 56.51399,119.17 11.944,13.51 29.906,30.04 49.486,24.91 18.47,-4.85 34.203,-21.2 46.282,-35.08 53.348,-61.32 32.608,-160.79 1.798,-228 -10.716,-23.38 -22.576,-46.72 -37.109,-68 -4.671,-6.84 -11.002,-18.61 -19.971,-19.81 -24.51,-3.28 -68.36499,8.95 -78.66199,32.81 -7.849,18.19 -5.338,40.68 -5.338,60 0,25.39 -2.384,51.39 21,66 m 4270.00039,53 c -1.39,7.19 -6.7,20.8 -4.31,27.82 2.04,5.96 14.27,11.15 19.31,14.51 17.93,11.96 39.58,32.17 60,38.67 1,-7.76 7.22,-22.31 4.36,-29.68 -2.38,-6.12 -14.09,-11.47 -19.36,-14.99 -17.26,-11.5 -39.65,-31.66 -60,-36.33 m -9,49 c -6.8,53.5 -18.85,106.92 -28.42,160 -3.99,22.1 -13.34,48.56 -12.38,71 0.39,9.16 12.44,12.87 12.8,22 l -15,-11 c -3.65,14.84 5.02,18.15 17,25 19.72,11.26 41.2,17.36 63,23 7.88,-21.01 9.34,-46.87 13.08,-69 6.03,-35.73 13.2,-71.26 19.17,-107 2.45,-14.69 5.35,-29.31 7.83,-44 0.85,-5.02 4.03,-12.96 2.28,-17.91 -2.17,-6.14 -13.21,-10.66 -18.36,-14.09 -17.46,-11.64 -40.55,-33.2 -61,-38 m 114,22 c -0.96,7.57 -7.13,22.91 -3.88,29.91 3.77,8.14 17.46,15.66 23.88,22.09 12.53,12.55 21.1,27.22 26.67,44 2.37,7.15 8.08,20.84 2.33,27 -11.93,-28.64 -30.11,-58.19 -57,-75 -10.07,31.84 -12.49,68.1 -18.42,101 -7.23,40.05 -18.37,81.45 -21.58,122 112.31,-0.93 135.71,-140.61 90.86,-221 -10.15,-18.2 -24.43,-39.35 -42.86,-50 m -168,279 c -0.66,8.25 -7.32,23.06 -4.36,30.79 2.11,5.51 14.38,9.47 19.36,11.96 18.72,9.36 41.83,22.4 63,24.25 0.86,-6.74 7.91,-25.79 3.96,-31.44 -3.37,-4.81 -17.5,-6.68 -22.96,-8.75 -19.95,-7.58 -38.9,-20.45 -59,-26.81 m -2583.0004,216 c -11.12,3.12 -22.37,20.08 -31,27.83 -19.78,17.77 -49.19,38.56 -76,43.17 9.41,-39.51 13.03,-77.29 30.23,-115 5.04,-11.04 10.04,-22.56 17.86,-31.99 2.31,-2.77 6.52,-8.54 10.81,-6.84 9.1,3.61 8.57,27.69 10.1,35.83 23.52,-10.96 15.97,-40.69 15.04,-62 -0.85,-19.39 -0.74,-43.6 -10.48,-61 -13.4,-23.94 -53.92,-32.17 -79.56,-29.94 -9.1,0.79 -14.89,13.82 -18.77,20.94 -12.22,22.42 -22.98,45.79 -31.23,70 -23.85,69.99 -31.5,163.53 25,220 13.86,13.86 30.87,29.31 51,32.37 16.96,2.58 32.28,-14.71 41.79,-26.41 23.93,-29.45 57.79,-77.29 45.21,-116.96 m -446,296 c 3.04,14.52 8.08,31.87 15,45 47.04,-15.31 94.07,-30.69 141,-46.33 23.55,-7.85 49.48,-20.05 74,-23.67 l 14.55,74 32,158 21.25,105 12.2,57 45,-9 c -1.2,-27.98 -11.1,-57.53 -16.6,-85 -14.01,-70.02 -27.93,-140.07 -42.4,-210 -7.05,-34.05 -19.51,-71.29 -21,-106 l 57,-18 106,-34.66 40,-13.01 14.93,-6.03 -2.26,-12.3 -10.67,-32 c -70.79,23.03 -142.51,53.23 -215,70 -4.54,-35.12 -14.15,-70.29 -21.2,-105 -14.83,-72.98 -29.59,-145.97 -44.2,-219 -3.47,-17.35 -7.13,-34.65 -10.6,-52 -0.86,-4.31 -1.04,-15.17 -4.74,-17.96 -4.24,-3.2 -18.35,2.18 -23.26,3.16 -4.61,0.92 -18.23,1.2 -20.88,5.36 -2.91,4.57 2.62,19.32 3.76,24.44 4.88,21.89 8.92,44 13.32,66 15.14,75.71 30.86,151.29 46,227 3.94,19.68 8.06,39.32 12,59 1.1,5.5 5.91,17.49 3.48,22.72 -1.81,3.91 -9.97,5.05 -13.68,6.28 -13.64,4.5 -27.36,8.79 -41,13.33 -54.56,18.19 -109.31,35.87 -164,53.67 m -11,-231 c -0.07,-8.74 -7.83,-31.23 0.28,-37.38 9.17,-6.96 28.7,18.7 33.59,24.38 28.61,33.29 43.89,69.99 64.13,108 l -1,1 -63,-13.69 -57,-28.31 c -4.51,15.28 5.47,33.85 14.75,45 19.45,23.34 41.16,46.19 67.25,62.19 16.64,10.2 33.5,15.12 50,2.14 82.91,-65.22 42.28,-190.65 -8.14,-261.33 -14.15,-19.83 -29.62,-38.79 -46.86,-56 -6.35,-6.34 -14.07,-15.82 -24,-13.75 -25.81,5.39 -61.49,24.21 -67.33,51.75 -4.12,19.4 2.4,43.07 6.68,62 5.03,22.24 5.74,46.83 30.65,54 m 433,440 c 7.87,-42.41 15.04,-81.04 32.42,-121 3.37,-7.74 14.97,-35.04 25.54,-33.82 9.47,1.09 9.69,29.67 11.04,36.82 20.75,-14.56 17.38,-36.77 15.17,-60 -2.64,-27.73 0.45,-65.53 -28.17,-81.1 -9.37,-5.1 -20.58,-7.59 -31,-9.48 -9.33,-1.68 -26.05,-6.91 -34.96,-2.24 -6.97,3.65 -11.64,14.22 -15.31,20.82 -10,17.98 -18.59,36.73 -25.78,56 -27.44,73.61 -40.65,173.98 21.22,234.29 13.54,13.19 29.5,27.8 48.83,31.25 13.79,2.46 26.07,-8.52 35,-17.54 21.94,-22.17 37.36,-51.72 49.86,-80 5.27,-11.93 5.3,-19.31 5.14,-32 -0.04,-3.28 0.97,-11.32 -3.28,-12.65 -5.44,-1.72 -20.68,18.8 -24.72,22.36 -24.41,21.5 -50.79,36.64 -81,48.29 m -342,9 c -0.95,-7.5 -9.05,-33.28 -0.72,-37.93 9.58,-5.35 28.18,18.3 33.72,23.93 27.27,27.73 56.6,68.97 67,107 -46.17,-3.64 -79.24,-20.61 -121,-38 -6.52,14.17 7.34,34.97 16,45 19.97,23.14 43.93,46.03 71,60.69 14.73,7.98 30.58,12.28 45,1.55 11.97,-8.91 20.55,-22.47 27.85,-35.24 41.91,-73.31 6.76,-163.58 -39.98,-226 -14.82,-19.79 -31.18,-37.86 -48.88,-55.04 -7.33,-7.11 -15.81,-17.18 -26.99,-13.92 -23.41,6.83 -56.74,23.7 -63.24,48.96 -5.32,20.64 2.35,44.92 7.37,65 5.37,21.5 7.21,49.43 32.87,54 z"
       id="path14" />
  </g>
</svg>
